/* XPM */
static xpm_row_t const asteroid_xpm[] = {
"29 29 343 2",
"  	c #FFFFFF",
". 	c #424846",
"+ 	c #B0B7B3",
"@ 	c #BABCBB",
"# 	c #909593",
"$ 	c #2F3432",
"% 	c #1B1E1D",
"& 	c #3D4140",
"* 	c #575C5A",
"= 	c #3C4B43",
"- 	c #4E5A55",
"; 	c #49524E",
"> 	c #555A58",
", 	c #292D2B",
"' 	c #3A3D3C",
") 	c #4D5852",
"! 	c #19211D",
"~ 	c #000201",
"{ 	c #000000",
"] 	c #121514",
"^ 	c #050605",
"/ 	c #070908",
"( 	c #2D3431",
"_ 	c #4D504F",
": 	c #4C514E",
"< 	c #DFDFDF",
"[ 	c #1B1F1D",
"} 	c #575F5A",
"| 	c #161917",
"1 	c #0E100F",
"2 	c #333A36",
"3 	c #000101",
"4 	c #0A0D0C",
"5 	c #565F5A",
"6 	c #3F4140",
"7 	c #2E302F",
"8 	c #3E4240",
"9 	c #000100",
"0 	c #060807",
"a 	c #080C0A",
"b 	c #030604",
"c 	c #070A08",
"d 	c #070807",
"e 	c #2A302C",
"f 	c #020503",
"g 	c #727775",
"h 	c #5D6561",
"i 	c #2D2F2E",
"j 	c #040806",
"k 	c #080808",
"l 	c #171918",
"m 	c #050A07",
"n 	c #323533",
"o 	c #050B07",
"p 	c #101312",
"q 	c #101311",
"r 	c #616664",
"s 	c #9CA19F",
"t 	c #696E6C",
"u 	c #1A1D1C",
"v 	c #3D4440",
"w 	c #151716",
"x 	c #6C6F6D",
"y 	c #434846",
"z 	c #010201",
"A 	c #0C0F0E",
"B 	c #878D8B",
"C 	c #202623",
"D 	c #282E2B",
"E 	c #010704",
"F 	c #909492",
"G 	c #7C8782",
"H 	c #474C49",
"I 	c #565C59",
"J 	c #1F2421",
"K 	c #020504",
"L 	c #545C58",
"M 	c #1C1F1E",
"N 	c #323936",
"O 	c #020302",
"P 	c #0E0F0F",
"Q 	c #010302",
"R 	c #050807",
"S 	c #3B403E",
"T 	c #2B3430",
"U 	c #8C908E",
"V 	c #7A7C7C",
"W 	c #7E8C85",
"X 	c #1D221F",
"Y 	c #3B3F3D",
"Z 	c #151816",
"` 	c #3A3E3C",
" .	c #1C2A22",
"..	c #1F2120",
"+.	c #4B4F4D",
"@.	c #0E1511",
"#.	c #5E6261",
"$.	c #89908D",
"%.	c #A0A7A4",
"&.	c #6C7872",
"*.	c #2C302E",
"=.	c #565958",
"-.	c #464D49",
";.	c #000301",
">.	c #28322D",
",.	c #212623",
"'.	c #383C3A",
").	c #070707",
"!.	c #111412",
"~.	c #3F4040",
"{.	c #BBBDBC",
"].	c #BCBEBD",
"^.	c #97A9A0",
"/.	c #151918",
"(.	c #2F3231",
"_.	c #6A6C6C",
":.	c #070B09",
"<.	c #0B0F0D",
"[.	c #19201D",
"}.	c #070808",
"|.	c #424644",
"1.	c #454E4A",
"2.	c #2C312E",
"3.	c #3F4241",
"4.	c #6D7973",
"5.	c #3E4140",
"6.	c #434E4A",
"7.	c #515F59",
"8.	c #141716",
"9.	c #0F1210",
"0.	c #050806",
"a.	c #242926",
"b.	c #1D2421",
"c.	c #363B39",
"d.	c #3E403F",
"e.	c #404442",
"f.	c #383B3A",
"g.	c #A2ACA7",
"h.	c #2A2C2B",
"i.	c #29302C",
"j.	c #47504C",
"k.	c #1D2722",
"l.	c #030404",
"m.	c #1D1F1E",
"n.	c #0A0C0B",
"o.	c #484D4B",
"p.	c #515D58",
"q.	c #050606",
"r.	c #111212",
"s.	c #A7B1AD",
"t.	c #545D59",
"u.	c #91A19A",
"v.	c #4B5250",
"w.	c #202624",
"x.	c #0E0F0E",
"y.	c #060706",
"z.	c #454F4A",
"A.	c #060908",
"B.	c #0D0F0E",
"C.	c #131916",
"D.	c #A0AAA5",
"E.	c #B0B4B2",
"F.	c #36453E",
"G.	c #B8BEBB",
"H.	c #181A1A",
"I.	c #4D4E4F",
"J.	c #161B19",
"K.	c #393F3C",
"L.	c #BFC1C0",
"M.	c #A0A5A3",
"N.	c #080B09",
"O.	c #6C6F6E",
"P.	c #919694",
"Q.	c #B5B7B6",
"R.	c #1E1E1E",
"S.	c #424746",
"T.	c #9EA2A0",
"U.	c #333534",
"V.	c #7D8982",
"W.	c #161818",
"X.	c #000001",
"Y.	c #101F18",
"Z.	c #090B0A",
"`.	c #212423",
" +	c #69756F",
".+	c #747A77",
"++	c #A0A9A6",
"@+	c #171919",
"#+	c #4F5653",
"$+	c #9DA19F",
"%+	c #5C6D65",
"&+	c #212D26",
"*+	c #313633",
"=+	c #0B0D0C",
"-+	c #040504",
";+	c #181D1B",
">+	c #585B5A",
",+	c #2E3331",
"'+	c #727B77",
")+	c #080A09",
"!+	c #27312C",
"~+	c #282D2B",
"{+	c #030705",
"]+	c #0B0E0C",
"^+	c #313433",
"/+	c #0D100F",
"(+	c #A1A5A3",
"_+	c #595C5B",
":+	c #0F1110",
"<+	c #C1C2C1",
"[+	c #A1ABA7",
"}+	c #606B66",
"|+	c #181C1A",
"1+	c #363937",
"2+	c #777D7A",
"3+	c #363938",
"4+	c #0D0D0D",
"5+	c #333734",
"6+	c #BDBEBD",
"7+	c #3F4342",
"8+	c #252927",
"9+	c #1D1E1D",
"0+	c #222524",
"a+	c #78837E",
"b+	c #6F7673",
"c+	c #88918D",
"d+	c #4D514F",
"e+	c #A6ADAB",
"f+	c #161817",
"g+	c #5F6B65",
"h+	c #292E2C",
"i+	c #121413",
"j+	c #343635",
"k+	c #1D211F",
"l+	c #5E6562",
"m+	c #38403C",
"n+	c #353937",
"o+	c #484B4A",
"p+	c #AEB4B1",
"q+	c #646D69",
"r+	c #6B7672",
"s+	c #7D8983",
"t+	c #181B1A",
"u+	c #191B1A",
"v+	c #AAADAC",
"w+	c #A1A2A2",
"x+	c #1B201E",
"y+	c #232624",
"z+	c #262D2A",
"A+	c #2F3A35",
"B+	c #1A201E",
"C+	c #232B27",
"D+	c #171C19",
"E+	c #222625",
"F+	c #6E7D76",
"G+	c #9EA5A1",
"H+	c #484C4B",
"I+	c #7C8380",
"J+	c #616A66",
"K+	c #737D79",
"L+	c #A8B1AD",
"M+	c #A4ADA8",
"N+	c #2F3331",
"O+	c #3A3C3B",
"P+	c #090D0B",
"Q+	c #282B2A",
"R+	c #5D5F5E",
"S+	c #939A97",
"T+	c #727976",
"U+	c #BDBFBE",
"V+	c #909A95",
"W+	c #9BA3A0",
"X+	c #89928E",
"Y+	c #1A1C1C",
"Z+	c #9D9D9D",
"`+	c #313A35",
" @	c #808C86",
".@	c #3C403E",
"+@	c #39413D",
"@@	c #282C2A",
"#@	c #202422",
"$@	c #252A28",
"%@	c #525D58",
"&@	c #B9BBBA",
"*@	c #6D7873",
"=@	c #8B8D8C",
"-@	c #B8BAB9",
";@	c #BEC0BF",
">@	c #737976",
",@	c #778780",
"'@	c #76827C",
")@	c #A1ABA6",
"!@	c #616C68",
"~@	c #696B6B",
"{@	c #565D5A",
"]@	c #6E7773",
"^@	c #586761",
"/@	c #99A59F",
"(@	c #7D8B84",
"_@	c #828885",
":@	c #2A2E2C",
"<@	c #7E8A85",
"[@	c #909F98",
"}@	c #ADB1AF",
"|@	c #9DAAA4",
"1@	c #B7B9B8",
"2@	c #909794",
"3@	c #47574F",
"4@	c #636C68",
"5@	c #B2B7B5",
"6@	c #7F8482",
"7@	c #ACB5B2",
"8@	c #86908B",
"9@	c #252826",
"0@	c #818E87",
"a@	c #525C58",
"b@	c #37413C",
"c@	c #838D88",
"d@	c #BCBDBC",
"e@	c #808A86",
"f@	c #718178",
"g@	c #BABDBB",
"h@	c #B5B9B7",
"i@	c #5B6D65",
"j@	c #788981",
"k@	c #88948E",
"l@	c #77817D",
"m@	c #B9BCBA",
"n@	c #8D9792",
"o@	c #535755",
"p@	c #7D7D7D",
"q@	c #212724",
"r@	c #333736",
"s@	c #666B68",
"t@	c #777E7A",
"u@	c #ABB1AE",
"v@	c #7F8683",
"w@	c #979D9B",
"x@	c #B5BAB8",
"y@	c #767F7B",
"z@	c #A0A6A3",
"A@	c #717673",
"B@	c #252726",
"                        . + @ # $                         ",
"                    % & * = - ; > ,                       ",
"                ' ) , ! ~ { ] ^ / ( _ : <                 ",
"            [ } | 1 2 { { { ~ { { 3 { 4 5 6               ",
"          7 8 9 0 3 1 { { a b { c d { e f g h             ",
"        7 i j k l m { { 9 n o { { p q { { r s t           ",
"      u v { w x y z { { { { { { A B C D 9 E F G H         ",
"      I J K L M N O { { { { P { Q R S T { 9 U V W X       ",
"    Y Z { { `  .Q { ..+.@.{ { { { { { 9 9 { #.$.%.&.*.    ",
"  =.-.;.{ { 1 9 { { >.;.,.{ d '.).{ { { { !.~.{.@ ].^./.  ",
"(._.:.{ { { { { { { <.[.}.{ |.1.2.9 { { { / 3.{.{.{.4.5.  ",
"6.7.8.9 { { 9.{ { { 0.a.{ { b.~ c.{ { d.e.~ f.{.{.{.g.h.  ",
"i.j.{ { { 9 k.O { { { { { { l.m.n.0 { o.p.q.r.{.s.t.u.    ",
"  v.b { 9 w.{ { { x.y.{ 9 z.9 { { { { A.B.{ C.D.E.F.G.H.  ",
"  I.J.3 9 { { { K.L.M.B.{ { { x.~ { { { { N.@ O.{.P.Q.R.  ",
"  S.p T.U.{ { { V.W.X.Y.{ { { Z.{ { { d `.3  +.+].{.++@+  ",
"  #+9 $+%+{ { { &+9 3 *+{ { { { =+m.-+;+>+,+@ {.{.{.'+    ",
"  3.)+!+~+{+9 { ]+^+N d { { { /+(+@ _+0 :+<+{.@ [+].}+    ",
"  |+1+d { 2+3+^ { 9 9 { 4+d { 5+6+7+8+9+0+@ {.a+b+c+d+    ",
"    e+f+{ g+h+i+{ j+k+{ _.l+{ 4 m+0 n+;.o+@ p+q+r+s+t+    ",
"  u+v+w+x+y+z+A+O { { { B+C+{ { D+E+'.F+L.{.G+H+I+J+      ",
"    K+L+M+N+:+f+^ { { { }.O+P+{ Q+R+S+T+U+{.V+W+X+Y+      ",
"    Z+`+ @{..@+@@@#@R.$@%@&@*@=@U+{.{.-@{.{.{.;@>@        ",
"        7 ,@(+'@)@].{.{.!@~@{@].@ ]@^@/@{.6+{.(@_@        ",
"          :@<@[@{.].}@|@1@2@{.{.$.3@4@{.5@6@7@8@f+        ",
"            9@0@@ {.a@b@c@{.{.{.{.@ d@e@f@*+              ",
"            Z g@h@i@j@k@l@m@&@{.{.{.n@o@                  ",
"              p@q@  Z+r@H+s@t@u@v@w@x@                    ",
"                              y@z@A@B@                    "};
