/* XPM */
static xpm_row_t const crosshair_xpm[] = {
"20 20 2 1",
" 	c None",
".	c #FFFFFF",
"       ......       ",
"      ........      ",
"   ....  ..  ...    ",
"  ...    ..    ..   ",
"  ..     ..     ..  ",
" ..      ..      .  ",
" ..      ..      .. ",
"..       ..       ..",
"..      ....      ..",
"....................",
"....................",
"..      ....      ..",
"..       ..       ..",
" ..      ..      .. ",
" ..      ..      .. ",
"  ..     ..     ..  ",
"  ...    ..    ..   ",
"   ....  ..  ....   ",
"     ..........     ",
"       ......       "};
