/* XPM */
static xpm_row_t const exitbutton_xpm[] = {
"175 77 2 1",
" 	c None",
".	c #DF9E9E",
"                                                                                                                                                                               ",
"                                                                                                                                                                               ",
"                                                                                                                                                                               ",
"                                                                                                                                                                               ",
"                                                                                                                                                                               ",
"                                                                                                                                                                               ",
"                                                                                                                                                                               ",
"                                                                                                                                                                               ",
"                                                                                                                                                                               ",
"                                                                                                                                                                               ",
"                                                                                                                                                                               ",
"                                                                                                                                                                               ",
"                                                                                                                                                                               ",
"                                                                                                                                                                               ",
"                                                                                                                                                                               ",
"                                                                                                                                                                               ",
"                                                                                                                                                                               ",
"                                                                                                                                                                               ",
"                                                                                                                                                                               ",
"                                                                                                                                                                               ",
"                                                                                                                                                                               ",
"                                                                                                                                                                               ",
"                                                                                                                                                                               ",
"                                                                                                                                                                               ",
"                                                                                                                                                                               ",
"                                                                                                                                                                               ",
"                                                                                                                                                                               ",
"                                                                                                                                                                               ",
"                                                                                                                                                                               ",
"                                                                                                                                                                               ",
"                                                    ................                    ....                                                                                   ",
"                                                    ................                   ......                                                                                  ",
"                                                    ................                   ......                                                                                  ",
"                                                    ................                    ....       ..                                                                          ",
"                                                    ......                                        ...                                                                          ",
"                                                    ......                                       ....                                                                          ",
"                                                    ......                                       ....                                                                          ",
"                                                    ......           ......    ......   .....   ..........                                                                     ",
"                                                    ...............   ......   .....    .....  ...........                                                                     ",
"                                                    ...............    .....  .....     ..... ............                                                                     ",
"                                                    ...............     ...........     .....   .....                                                                          ",
"                                                    ...............     ..........      .....   .....                                                                          ",
"                                                    ......               ........       .....   .....                                                                          ",
"                                                    ......                ......        .....   .....                                                                          ",
"                                                    ......                ......        .....   .....                                                                          ",
"                                                    ......               ........       .....   .....                                                                          ",
"                                                    ......              ..........      .....   .....                                                                          ",
"                                                    ................    ...........     .....   ......  ..                                                                     ",
"                                                    ................   .....  ......    .....    .........                                                                     ",
"                                                    ................  .....    ......   .....    .........                                                                     ",
"                                                    ................ ......     .....   .....     .......                                                                      ",
"                                                                                                                                                                               ",
"                                                                                                                                                                               ",
"                                                                                                                                                                               ",
"                                                                                                                                                                               ",
"                                                                                                                                                                               ",
"                                                                                                                                                                               ",
"                                                                                                                                                                               ",
"                                                                                                                                                                               ",
"                                                                                                                                                                               ",
"                                                                                                                                                                               ",
"                                                                                                                                                                               ",
"                                                                                                                                                                               ",
"                                                                                                                                                                               ",
"                                                                                                                                                                               ",
"                                                                                                                                                                               ",
"                                                                                                                                                                               ",
"                                                                                                                                                                               ",
"                                                                                                                                                                               ",
"                                                                                                                                                                               ",
"                                                                                                                                                                               ",
"                                                                                                                                                                               ",
"                                                                                                                                                                               ",
"                                                                                                                                                                               ",
"                                                                                                                                                                               ",
"                                                                                                                                                                               ",
"                                                                                                                                                                               "};
