/* XPM */
static xpm_row_t const mouse_xpm[] = {
"15 16 67 1",
" 	c None",
".	c #000000",
"+	c #000000",
"@	c #000000",
"#	c #000000",
"$	c #000000",
"%	c #000000",
"&	c #000000",
"*	c #000000",
"=	c #000000",
"-	c #000000",
";	c #000000",
">	c #000000",
",	c #000000",
"'	c #000000",
")	c #000000",
"!	c #FFFFFF",
"~	c #000000",
"{	c #000000",
"]	c #000000",
"^	c #000000",
"/	c #000000",
"(	c #000000",
"_	c #000000",
":	c #000000",
"<	c #000000",
"[	c #000000",
"}	c #000000",
"|	c #000000",
"1	c #000000",
"2	c #000000",
"3	c #000000",
"4	c #000000",
"5	c #000000",
"6	c #000000",
"7	c #000000",
"8	c #000000",
"9	c #000000",
"0	c #000000",
"a	c #000000",
"b	c #000000",
"c	c #000000",
"d	c #000000",
"e	c #000000",
"f	c #000000",
"g	c #000000",
"h	c #000000",
"i	c #000000",
"j	c #000000",
"k	c #000000",
"l	c #000000",
"m	c #000000",
"n	c #000000",
"o	c #000000",
"p	c #000000",
"q	c #000000",
"r	c #000000",
"s	c #000000",
"t	c #000000",
"u	c #000000",
"v	c #000000",
"w	c #000000",
"x	c #000000",
"y	c #000000",
"z	c #000000",
"A	c #000000",
"B	c #000000",
".+@@#$$%&@$@$*@",
"=#-;%$$>,&%&$%&",
"')!~{]^/>%#%**/",
"%(_!!):<,*$*$$*",
"$[}!!!!|1>@*$$*",
"@$:!!!!!234%@$%",
"$@5@!!!!!!&6|%$",
"$##7!!!!!!!!890",
"*^@a!!!!!!<bc>#",
"/d/e}!!!!/f@@#/",
"#/#*g!!!h!ij%@#",
"$#@@+k!lmn!&o$@",
"$$$$$3pq,rs!tu@",
"$$$$$vw%$/xy!hz",
"$#@$*~a@#@$18,A",
"#^&$@$%>/#@$aB#"};
