/* XPM */
static xpm_row_t const ship_xpm[] = {
"41 44 677 2",
"  	c None",
". 	c #AD7079",
"+ 	c #9D6B73",
"@ 	c #8E6269",
"# 	c #9B7E81",
"$ 	c #BE566C",
"% 	c #E80C5E",
"& 	c #F2045E",
"* 	c #D1365B",
"= 	c #A7505F",
"- 	c #9C9193",
"; 	c #BF657C",
"> 	c #EC1269",
", 	c #FD016B",
"' 	c #FD0167",
") 	c #F90261",
"! 	c #D73A60",
"~ 	c #A45966",
"{ 	c #B03A66",
"] 	c #DF1E71",
"^ 	c #FC0478",
"/ 	c #FE0373",
"( 	c #FE026E",
"_ 	c #FD026A",
": 	c #F40562",
"< 	c #CB3F61",
"[ 	c #935F68",
"} 	c #9C5E71",
"| 	c #D33E7B",
"1 	c #F70581",
"2 	c #FC047F",
"3 	c #FD037B",
"4 	c #FD0376",
"5 	c #FD0271",
"6 	c #FB036D",
"7 	c #E90C62",
"8 	c #C62858",
"9 	c #C83A7C",
"0 	c #EC1487",
"a 	c #FE048B",
"b 	c #FE0486",
"c 	c #FE0482",
"d 	c #FD037E",
"e 	c #FD027A",
"f 	c #FD0375",
"g 	c #FB046F",
"h 	c #DD3168",
"i 	c #A6606F",
"j 	c #A0617C",
"k 	c #D83E8C",
"l 	c #F90695",
"m 	c #FE0593",
"n 	c #FE058E",
"o 	c #FD0589",
"p 	c #FB0584",
"q 	c #FC0480",
"r 	c #FD047D",
"s 	c #FD0377",
"t 	c #F20C6E",
"u 	c #C75A75",
"v 	c #968C8C",
"w 	c #C43788",
"x 	c #EC139A",
"y 	c #FC07A0",
"z 	c #F50796",
"A 	c #E30A85",
"B 	c #D32079",
"C 	c #CE2875",
"D 	c #D51B73",
"E 	c #E50776",
"F 	c #F6047B",
"G 	c #FB0379",
"H 	c #DD2D6E",
"I 	c #A14A61",
"J 	c #905B7B",
"K 	c #D7399A",
"L 	c #FA08A9",
"M 	c #F0099E",
"N 	c #C93185",
"O 	c #9D6D87",
"P 	c #8F939B",
"Q 	c #929DA2",
"R 	c #9B939B",
"S 	c #AC6E85",
"T 	c #CF3073",
"U 	c #F2057D",
"V 	c #ED0C78",
"W 	c #C84170",
"X 	c #B74E93",
"Y 	c #E81DAB",
"Z 	c #FB0AB2",
"` 	c #CB148C",
" .	c #867185",
"..	c #88B1B4",
"+.	c #A2CED1",
"@.	c #ACD6D8",
"#.	c #AED3D4",
"$.	c #9EBABB",
"%.	c #997B88",
"&.	c #D01A72",
"*.	c #F60684",
"=.	c #D73E7A",
"-.	c #956873",
";.	c #8D7684",
">.	c #CE48A6",
",.	c #F50CBB",
"'.	c #F70AB8",
").	c #B02084",
"!.	c #728F95",
"~.	c #8BC1C4",
"{.	c #96CCD0",
"].	c #9ED0D3",
"^.	c #A5D4D6",
"/.	c #A7D1D3",
"(.	c #8EA5A8",
"_.	c #AD366B",
":.	c #F50689",
"<.	c #E7167E",
"[.	c #B55576",
"}.	c #A2488C",
"|.	c #DF2CB7",
"1.	c #FA0BC6",
"2.	c #F909C0",
"3.	c #BD1991",
"4.	c #768290",
"5.	c #79B7BB",
"6.	c #87C5C9",
"7.	c #8EC8CD",
"8.	c #96CBD0",
"9.	c #9ACBCE",
"0.	c #83A2A5",
"a.	c #A9356D",
"b.	c #F50790",
"c.	c #F3098C",
"d.	c #CD5283",
"e.	c #948A8D",
"f.	c #C04DA9",
"g.	c #ED14C8",
"h.	c #FC0BD0",
"i.	c #FC0ACA",
"j.	c #E50DB3",
"k.	c #A2508E",
"l.	c #688C95",
"m.	c #70AFB4",
"n.	c #7CBDC2",
"o.	c #82BEC2",
"p.	c #7CA9AC",
"q.	c #857284",
"r.	c #C81A82",
"s.	c #FA089C",
"t.	c #FA0898",
"u.	c #DD3689",
"v.	c #955C71",
"w.	c #907E8D",
"x.	c #D44BBF",
"y.	c #F80ED8",
"z.	c #FE0CD8",
"A.	c #FE0BD4",
"B.	c #FA0CCC",
"C.	c #E419B8",
"D.	c #B9429C",
"E.	c #8B638A",
"F.	c #707486",
"G.	c #757384",
"H.	c #995985",
"I.	c #CB2D92",
"J.	c #EF09A1",
"K.	c #FD07A4",
"L.	c #FD07A0",
"M.	c #E81E91",
"N.	c #B53574",
"O.	c #965290",
"P.	c #DE31D0",
"Q.	c #FC0DE4",
"R.	c #FF0CDF",
"S.	c #FF0CDB",
"T.	c #FE0BD6",
"U.	c #FB0BD0",
"V.	c #F20BC5",
"W.	c #E613B8",
"X.	c #DE1EAF",
"Y.	c #DE1BAA",
"Z.	c #E80EAC",
"`.	c #F609B2",
" +	c #FD09B0",
".+	c #FE08AB",
"++	c #FD08A7",
"@+	c #F00D9C",
"#+	c #C54285",
"$+	c #837C7B",
"%+	c #B528B1",
"&+	c #E819DE",
"*+	c #FD0EEC",
"=+	c #FE0DE6",
"-+	c #FF0CE2",
";+	c #FF0BDE",
">+	c #FE0BD9",
",+	c #FD0BCF",
"'+	c #FD0BCA",
")+	c #FD0AC5",
"!+	c #FD0AC1",
"~+	c #FE09BD",
"{+	c #FE09B9",
"]+	c #FE08B4",
"^+	c #FD08AE",
"/+	c #F809A6",
"(+	c #D64697",
"_+	c #907A81",
":+	c #7F7D84",
"<+	c #C444C5",
"[+	c #F110EC",
"}+	c #FD0EF3",
"|+	c #FE0EEF",
"1+	c #FF0DEA",
"2+	c #FF0CE5",
"3+	c #FF0CE1",
"4+	c #FF0CDD",
"5+	c #FE0ACE",
"6+	c #FE0AC8",
"7+	c #FE0AC4",
"8+	c #FF09C1",
"9+	c #FE09BC",
"0+	c #FE08B7",
"a+	c #FC09B0",
"b+	c #DF309E",
"c+	c #915571",
"d+	c #837282",
"e+	c #D140D3",
"f+	c #F60CF7",
"g+	c #FE0EFC",
"h+	c #FF0EF7",
"i+	c #FE0EF3",
"j+	c #FD0EEF",
"k+	c #FE0DE8",
"l+	c #FB0DE1",
"m+	c #EF0DD4",
"n+	c #EE0DCE",
"o+	c #FA0BD4",
"p+	c #FE0BD2",
"q+	c #FE0BCD",
"r+	c #FE09C0",
"s+	c #FD09B9",
"t+	c #E421A6",
"u+	c #A23B7A",
"v+	c #797775",
"w+	c #935162",
"x+	c #882A6D",
"y+	c #D411D9",
"z+	c #F307FB",
"A+	c #F90AFF",
"B+	c #FD0CFD",
"C+	c #FE0EFA",
"D+	c #FD0EF6",
"E+	c #FA0EF1",
"F+	c #D20CC3",
"G+	c #B50981",
"H+	c #B60876",
"I+	c #CD0BAA",
"J+	c #F60CD3",
"K+	c #FE0CD4",
"L+	c #FE0ACA",
"M+	c #FE0AC7",
"N+	c #FD09C3",
"O+	c #EB0DB0",
"P+	c #AB3681",
"Q+	c #6F6264",
"R+	c #8A767A",
"S+	c #C53E72",
"T+	c #E90E78",
"U+	c #B8068A",
"V+	c #D803E1",
"W+	c #ED01FD",
"X+	c #F003FE",
"Y+	c #F707FD",
"Z+	c #FC0BFC",
"`+	c #FB10FB",
" @	c #EB11E9",
".@	c #C70CA8",
"+@	c #D90678",
"@@	c #EF067F",
"#@	c #CB0782",
"$@	c #D20AB8",
"%@	c #FC0CDD",
"&@	c #FE0BD7",
"*@	c #FE0CD2",
"=@	c #FF0CCD",
"-@	c #F00ABC",
";@	c #CB0B91",
">@	c #BD195B",
",@	c #B24266",
"'@	c #876C74",
")@	c #954C6B",
"!@	c #DE2283",
"~@	c #F9058F",
"{@	c #F0078A",
"]@	c #BC069D",
"^@	c #DB03E5",
"/@	c #ED00FE",
"(@	c #ED00FF",
"_@	c #EE02FF",
":@	c #F305FE",
"<@	c #F80BFC",
"[@	c #E10EE3",
"}@	c #CE0BA8",
"|@	c #E80787",
"1@	c #FB068F",
"2@	c #CF067B",
"3@	c #C20BA8",
"4@	c #F80EE1",
"5@	c #FE0CE1",
"6@	c #FE0CD5",
"7@	c #FF0BD1",
"8@	c #F50BC5",
"9@	c #D50A9E",
"0@	c #CC056A",
"a@	c #F40582",
"b@	c #D13777",
"c@	c #97757D",
"d@	c #AA3874",
"e@	c #EA1896",
"f@	c #FB07A0",
"g@	c #FE06A2",
"h@	c #EA0796",
"i@	c #BE06AB",
"j@	c #DB04E9",
"k@	c #EC02FD",
"l@	c #EC01FD",
"m@	c #F004FC",
"n@	c #D508DA",
"o@	c #C909A0",
"p@	c #EB0893",
"q@	c #FB079E",
"r@	c #D9078A",
"s@	c #C80AA8",
"t@	c #F20EE0",
"u@	c #FE0DE7",
"v@	c #FE0CE3",
"w@	c #FE0CDE",
"x@	c #FE0CD9",
"y@	c #F60CD0",
"z@	c #D80CAF",
"A@	c #C40776",
"B@	c #FA0793",
"C@	c #F80792",
"D@	c #DA1A82",
"E@	c #8A3E5F",
"F@	c #B02E82",
"G@	c #EE12A9",
"H@	c #FD08B2",
"I@	c #FB08B1",
"J@	c #E608A5",
"K@	c #C006B3",
"L@	c #DD02EC",
"M@	c #ED01FE",
"N@	c #CF05DA",
"O@	c #CA08A7",
"P@	c #EE08A2",
"Q@	c #FC07AA",
"R@	c #E10797",
"S@	c #CA0AAC",
"T@	c #EA0EE1",
"U@	c #FD0DEA",
"V@	c #FE0DE5",
"W@	c #F80DD8",
"X@	c #D90CB6",
"Y@	c #C30782",
"Z@	c #FD09A5",
"`@	c #FF07A5",
" #	c #FB07A1",
".#	c #E11392",
"+#	c #8F3167",
"@#	c #AD438F",
"##	c #F019BC",
"$#	c #FB0AC4",
"%#	c #FE09C3",
"&#	c #E80BB3",
"*#	c #C107B8",
"=#	c #DD03EB",
"-#	c #EC01FE",
";#	c #CD04DA",
">#	c #C909AD",
",#	c #ED0BAE",
"'#	c #FC09B6",
")#	c #E308A2",
"!#	c #CA09AE",
"~#	c #E50DE2",
"{#	c #FC0EF6",
"]#	c #FE0DF3",
"^#	c #FE0EEE",
"/#	c #FE0DE9",
"(#	c #F70DDF",
"_#	c #D80CBD",
":#	c #C40A90",
"<#	c #FD09B6",
"[#	c #FE08B6",
"}#	c #FB08B2",
"|#	c #E31AA2",
"1#	c #964878",
"2#	c #A24F95",
"3#	c #EB1CC8",
"4#	c #FA0BD3",
"5#	c #FD0BD3",
"6#	c #FD0BD4",
"7#	c #FC0CD4",
"8#	c #EB0CC8",
"9#	c #BE06B9",
"0#	c #DC02EB",
"a#	c #CB03D9",
"b#	c #C808B2",
"c#	c #ED0BBA",
"d#	c #E208B0",
"e#	c #C908B4",
"f#	c #E40BE6",
"g#	c #FB0DFB",
"h#	c #FD0DF9",
"i#	c #FE0DF6",
"j#	c #FD0EF0",
"k#	c #F40EE4",
"l#	c #D50DC2",
"m#	c #C909A2",
"n#	c #FD0AC9",
"o#	c #FE0AC6",
"p#	c #FE0AC5",
"q#	c #FA0AC2",
"r#	c #DD2BAF",
"s#	c #9C7B90",
"t#	c #977B97",
"u#	c #DD27CD",
"v#	c #FB0DE4",
"w#	c #FE0CE4",
"x#	c #FE0CE5",
"y#	c #FD0EE4",
"z#	c #F20EDE",
"A#	c #BC08B7",
"B#	c #D904E5",
"C#	c #ED01FC",
"D#	c #CB03D8",
"E#	c #C809B9",
"F#	c #EF0BC7",
"G#	c #FD0BD0",
"H#	c #E10BB9",
"I#	c #C508B8",
"J#	c #E006E8",
"K#	c #F509FD",
"L#	c #FA0BFD",
"M#	c #FC0DFC",
"N#	c #FD0EF8",
"O#	c #F10FE9",
"P#	c #CE0FC2",
"Q#	c #D40DBA",
"R#	c #FD0CD9",
"S#	c #FE0BD8",
"T#	c #FE0CD7",
"U#	c #FE0CD6",
"V#	c #FD0CD5",
"W#	c #F90ED2",
"X#	c #CB33AD",
"Y#	c #9A8E97",
"Z#	c #B335B2",
"`#	c #F614EF",
" $	c #FD0DF5",
".$	c #FE0DF5",
"+$	c #FA0DF0",
"@$	c #F40EEB",
"#$	c #ED17E5",
"$$	c #E526DC",
"%$	c #AC32A9",
"&$	c #C42DCE",
"*$	c #DC1BE8",
"=$	c #E209F1",
"-$	c #E603F6",
";$	c #E902F9",
">$	c #EB02FB",
",$	c #CC04D8",
"'$	c #C90ABE",
")$	c #ED0ED2",
"!$	c #FB0EDD",
"~$	c #DC0DC1",
"{$	c #C109BD",
"]$	c #DF03ED",
"^$	c #EF03FD",
"/$	c #F306FD",
"($	c #F60AFA",
"_$	c #F70DF7",
":$	c #E410E4",
"<$	c #BF0FBA",
"[$	c #E40FD5",
"}$	c #FE0DEA",
"|$	c #FD0EE8",
"1$	c #FD0EE7",
"2$	c #FD0DE6",
"3$	c #FD0DE7",
"4$	c #F518DD",
"5$	c #A7499D",
"6$	c #87778C",
"7$	c #DD20E3",
"8$	c #F409F9",
"9$	c #F009F4",
"0$	c #E614E9",
"a$	c #E139E3",
"b$	c #D852D8",
"c$	c #C95EC8",
"d$	c #C340C1",
"e$	c #B341AE",
"f$	c #895885",
"g$	c #925096",
"h$	c #B234B9",
"i$	c #C615D2",
"j$	c #C849D2",
"k$	c #C837CE",
"l$	c #D009D1",
"m$	c #B906B9",
"n$	c #BD0BB5",
"o$	c #E90EDA",
"p$	c #FC0DEA",
"q$	c #D60CC8",
"r$	c #B009B0",
"s$	c #CC04D5",
"t$	c #D410DF",
"u$	c #D332DE",
"v$	c #D548DC",
"w$	c #D047D3",
"x$	c #BD52BD",
"y$	c #A453A1",
"z$	c #D147CC",
"A$	c #E239DD",
"B$	c #E91BE3",
"C$	c #F10EED",
"D$	c #F90EF3",
"E$	c #FA0CF5",
"F$	c #FC0DF5",
"G$	c #D922D3",
"H$	c #826D82",
"I$	c #88598C",
"J$	c #D719E4",
"K$	c #D02CDA",
"L$	c #BC37C3",
"M$	c #B728BF",
"N$	c #A45DA8",
"O$	c #9C849F",
"P$	c #969698",
"Q$	c #8D8187",
"R$	c #A25570",
"S$	c #BF0C6F",
"T$	c #A4086A",
"U$	c #A50C9A",
"V$	c #E10EDC",
"W$	c #FA0EF4",
"X$	c #D00ECB",
"Y$	c #940D88",
"Z$	c #B3088C",
"`$	c #BC1D8C",
" %	c #A04B88",
".%	c #99749B",
"+%	c #897389",
"@%	c #888389",
"#%	c #8D858F",
"$%	c #937194",
"%%	c #A55CA6",
"&%	c #B83EB8",
"*%	c #C153C3",
"=%	c #CF3AD3",
"-%	c #DE18E3",
";%	c #ED0AF3",
">%	c #F40AF9",
",%	c #ED14F0",
"'%	c #944998",
")%	c #988498",
"!%	c #B77ABD",
"~%	c #9C519F",
"{%	c #715672",
"]%	c #86676D",
"^%	c #C74264",
"/%	c #EF0470",
"(%	c #C7066C",
"_%	c #A30A8C",
":%	c #D60CD7",
"<%	c #F50BF9",
"[%	c #CA0DCB",
"}%	c #990F7B",
"|%	c #D30B84",
"1%	c #EC1385",
"2%	c #C73B6C",
"3%	c #877D8A",
"4%	c #87588B",
"5%	c #AB35B2",
"6%	c #B750C0",
"7%	c #CB28D4",
"8%	c #DD0BE6",
"9%	c #A528AD",
"0%	c #ADADAE",
"a%	c #924E56",
"b%	c #D7315A",
"c%	c #F8046C",
"d%	c #D2056B",
"e%	c #9F0679",
"f%	c #C705CC",
"g%	c #EA05F6",
"h%	c #BD06C2",
"i%	c #980870",
"j%	c #DC0785",
"k%	c #F90385",
"l%	c #D5386C",
"m%	c #8E5B63",
"n%	c #7D7383",
"o%	c #954B9C",
"p%	c #B574BA",
"q%	c #8F4C94",
"r%	c #974550",
"s%	c #DB2B53",
"t%	c #FA0464",
"u%	c #E5056C",
"v%	c #A50562",
"w%	c #B504BA",
"x%	c #DE05EA",
"y%	c #B206B5",
"z%	c #AE056F",
"A%	c #ED0389",
"B%	c #FA037E",
"C%	c #DC2865",
"D%	c #984354",
"E%	c #906569",
"F%	c #D24057",
"G%	c #F70357",
"H%	c #F6036B",
"I%	c #CA0462",
"J%	c #B604A6",
"K%	c #C805D3",
"L%	c #BC06AC",
"M%	c #D5047C",
"N%	c #FA0186",
"O%	c #F80375",
"P%	c #D33D68",
"Q%	c #8F6369",
"R%	c #B63546",
"S%	c #E20646",
"T%	c #FA025E",
"U%	c #EB0366",
"V%	c #C00586",
"W%	c #9F069F",
"X%	c #C40590",
"Y%	c #F0037D",
"Z%	c #FB0179",
"`%	c #E32569",
" &	c #B44A61",
".&	c #B81E3D",
"+&	c #DE144B",
"@&	c #F6035B",
"#&	c #DD0465",
"$&	c #C5056A",
"%&	c #E00470",
"&&	c #F50371",
"*&	c #DD1F65",
"=&	c #B53759",
"-&	c #B24F5C",
";&	c #D93A59",
">&	c #F10355",
",&	c #F1035C",
"'&	c #F00360",
")&	c #D53261",
"!&	c #AB495F",
"~&	c #AD535D",
"{&	c #D73752",
"]&	c #F6034C",
"^&	c #D82A52",
"/&	c #A84355",
"(&	c #857D7D",
"_&	c #B55A61",
":&	c #DB0537",
"<&	c #C05B65",
"[&	c #928384",
"}&	c #AC3544",
"|&	c #AB2F3E",
"1&	c #A4474F",
"2&	c #877A7C",
"3&	c #887A7D",
"4&	c #887B7D",
"                                                                                  ",
"                                        . + @                                     ",
"                                    # $ % & * =                                   ",
"                                  - ; > , ' ) ! ~                                 ",
"                                  { ] ^ / ( _ : < [                               ",
"                                } | 1 2 3 4 5 6 7 8                               ",
"                                9 0 a b c d e f g h i                             ",
"                              j k l m n o p q r s t u v                           ",
"                              w x y z A B C D E F G H I                           ",
"                            J K L M N O P Q R S T U V W                           ",
"                            X Y Z `  ...+.@.#.$.%.&.*.=.-.                        ",
"                          ;.>.,.'.).!.~.{.].^./.(._.:.<.[.                        ",
"                          }.|.1.2.3.4.5.6.7.8.9.0.a.b.c.d.e.                      ",
"                          f.g.h.i.j.k.l.m.n.o.p.q.r.s.t.u.v.                      ",
"                        w.x.y.z.A.B.C.D.E.F.G.H.I.J.K.L.M.N.                      ",
"                        O.P.Q.R.S.T.U.V.W.X.Y.Z.`. +.+++@+#+$+                    ",
"                        %+&+*+=+-+;+>+A.,+'+)+!+~+{+]+^+/+(+_+                    ",
"                      :+<+[+}+|+1+2+3+4+z.A.5+6+7+8+9+0+a+b+c+                    ",
"                      d+e+f+g+h+i+j+k+l+m+n+o+p+q+6+7+r+s+t+u+                    ",
"                  v+w+x+y+z+A+B+C+D+E+F+G+H+I+J+K+,+L+M+N+O+P+Q+                  ",
"                R+S+T+U+V+W+X+Y+Z+`+ @.@+@@@#@$@%@&@*@=@'+-@;@>@,@'@              ",
"              )@!@~@{@]@^@/@(@_@:@<@[@}@|@1@2@3@4@5@S.6@7@8@9@0@a@b@c@            ",
"            d@e@f@g@h@i@j@k@(@(@l@m@n@o@p@q@r@s@t@u@v@w@x@y@z@A@B@C@D@E@          ",
"          F@G@H@H@I@J@K@L@(@(@(@(@M@N@O@P@Q@R@S@T@j+U@V@-+W@X@Y@Z@`@ #.#+#        ",
"        @###$#%#%#N+&#*#=#-#(@(@(@M@;#>#,#'#)#!#~#{#]#^#/#(#_#:#<#[#]+}#|#1#      ",
"      2#3#4#5#A.6#7#8#9#0#/@(@(@(@W+a#b#c#$#d#e#f#g#h#i#j#k#l#m#n#M+o#p#q#r#s#    ",
"    t#u#v#V@w#w#x#y#z#A#B#C#/@(@(@M@D#E#F#G#H#I#J#K#L#M#N#O#P#Q#R#S#T#U#V#W#X#Y#  ",
"    Z#`# $ $.$+$@$#$$$%$&$*$=$-$;$>$,$'$)$!$~${$]$^$/$($_$:$<$[$}$}$|$1$2$3$4$5$  ",
"  6$7$8$9$0$a$b$c$d$e$f$g$h$i$j$k$l$m$n$o$p$q$r$s$t$u$v$w$x$y$z$A$B$C$D$E$F$E+G$H$",
"  I$J$K$L$M$N$O$P$            Q$R$S$T$U$V$W$X$Y$Z$`$ %.%+%@%#%$%%%&%*%=%-%;%>%,%'%",
"  )%!%~%{%                    ]%^%/%(%_%:%<%[%}%|%1%2%              3%4%5%6%7%8%9%",
"    0%                        a%b%c%d%e%f%g%h%i%j%k%l%m%                  n%o%p%q%",
"                              r%s%t%u%v%w%x%y%z%A%B%C%D%                          ",
"                              E%F%G%H%I%J%K%L%M%N%O%P%Q%                          ",
"                                R%S%T%U%V%W%X%Y%Z%`% &                            ",
"                                  .&+&@&#&$&%&&&*&=&                              ",
"                                    -&;&>&,&'&)&!&                                ",
"                                      ~&{&]&^&/&                                  ",
"                                      (&_&:&<&[&                                  ",
"                                        }&|&1&                                    ",
"                                        2&3&4&                                    ",
"                                                                                  ",
"                                                                                  ",
"                                                                                  "};
