/* XPM */
static xpm_row_t const star_xpm[] = {
"6 6 16 1",
" 	c None",
".	c #000000",
"+	c #A68C2C",
"@	c #A68B2C",
"#	c #A78C2F",
"$	c #A68C2F",
"%	c #C7A735",
"&	c #A68C2D",
"*	c #A78D31",
"=	c #A78D30",
"-	c #C6A52E",
";	c #C4A32F",
">	c #9F852C",
",	c #796521",
"'	c #A68A29",
")	c #79651E",
"..+...",
"..@#..",
".$%%&*",
"=@-;>,",
"..''..",
"..)).."};
