/* XPM */
static xpm_row_t const startbutton_xpm[] = {
"175 77 2 1",
" 	c None",
".	c #8BDA98",
"                                                                                                                                                                               ",
"                                                                                                                                                                               ",
"                                                                                                                                                                               ",
"                                                                                                                                                                               ",
"                                                                                                                                                                               ",
"                                                                                                                                                                               ",
"                                                                                                                                                                               ",
"                                                                                                                                                                               ",
"                                                                                                                                                                               ",
"                                                                                                                                                                               ",
"                                                                                                                                                                               ",
"                                                                                                                                                                               ",
"                                                                                                                                                                               ",
"                                                                                                                                                                               ",
"                                                                                                                                                                               ",
"                                                                                                                                                                               ",
"                                                                                                                                                                               ",
"                                                                                                                                                                               ",
"                                                                                                                                                                               ",
"                                                                                                                                                                               ",
"                                                                                                                                                                               ",
"                                                                                                                                                                               ",
"                                                                                                                                                                               ",
"                                                                                                                                                                               ",
"                                                                                                                                                                               ",
"                                                                                                                                                                               ",
"                                                                                                                                                                               ",
"                                                                                                                                                                               ",
"                                                                                                                                                                               ",
"                                                                                                                                                                               ",
"                                                         .........                                                                                                             ",
"                                                       .............                                                                                                           ",
"                                                      ..............                                                                                                           ",
"                                                      ..............       ..                                       ..                                                         ",
"                                                     .......    ....      ...                                      ...                                                         ",
"                                                     ......              ....                                     ....                                                         ",
"                                                     .......             ....                                     ....                                                         ",
"                                                      ........          ..........   .........      .....  ....  ..........                                                    ",
"                                                      ..........       ...........  ...........     ..... .................                                                    ",
"                                                       ...........    ............ .............    .......................                                                    ",
"                                                         ...........    .....      ....   ......    ...........  .....                                                         ",
"                                                           .........    .....      ..      .....    .......  ..  .....                                                         ",
"                                                              .......   .....            .......    ......       .....                                                         ",
"                                                               ......   .....         ..........    .....        .....                                                         ",
"                                                               ......   .....       ............    .....        .....                                                         ",
"                                                      ..       ......   .....      ....... .....    .....        .....                                                         ",
"                                                      .....   .......   .....      .....   .....    .....        .....                                                         ",
"                                                      ...............   ......  .. .....  ...... .  .....        ......  ..                                                    ",
"                                                      ..............     ......... ...............  .....         .........                                                    ",
"                                                      .............      ......... ...............  .....         .........                                                    ",
"                                                        .........         .......   ......  .....   .....          .......                                                     ",
"                                                                                                                                                                               ",
"                                                                                                                                                                               ",
"                                                                                                                                                                               ",
"                                                                                                                                                                               ",
"                                                                                                                                                                               ",
"                                                                                                                                                                               ",
"                                                                                                                                                                               ",
"                                                                                                                                                                               ",
"                                                                                                                                                                               ",
"                                                                                                                                                                               ",
"                                                                                                                                                                               ",
"                                                                                                                                                                               ",
"                                                                                                                                                                               ",
"                                                                                                                                                                               ",
"                                                                                                                                                                               ",
"                                                                                                                                                                               ",
"                                                                                                                                                                               ",
"                                                                                                                                                                               ",
"                                                                                                                                                                               ",
"                                                                                                                                                                               ",
"                                                                                                                                                                               ",
"                                                                                                                                                                               ",
"                                                                                                                                                                               ",
"                                                                                                                                                                               ",
"                                                                                                                                                                               ",
"                                                                                                                                                                               "};
