/* XPM */
static xpm_row_t const letterN_xpm[] = {
"25 30 44 1",
" 	c None",
".	c #000000",
"+	c #D8D8D8",
"@	c #FEFEFE",
"#	c #ABABAB",
"$	c #4F4F4F",
"%	c #222222",
"&	c #FCFCFC",
"*	c #8F8F8F",
"=	c #F8F8F8",
"-	c #727272",
";	c #EFEFEF",
">	c #535353",
",	c #E4E4E4",
"'	c #323232",
")	c #D3D3D3",
"!	c #0D0D0D",
"~	c #BEBEBE",
"{	c #F5F5F5",
"]	c #A4A4A4",
"^	c #B0B0B0",
"/	c #E2E2E2",
"(	c #FBFBFB",
"_	c #878787",
":	c #515151",
"<	c #F6F6F6",
"[	c #6A6A6A",
"}	c #EDEDED",
"|	c #4B4B4B",
"1	c #919191",
"2	c #FDFDFD",
"3	c #E0E0E0",
"4	c #5A5A5A",
"5	c #AFAFAF",
"6	c #D9D9D9",
"7	c #C9C9C9",
"8	c #DEDEDE",
"9	c #474747",
"0	c #ECECEC",
"a	c #696969",
"b	c #888888",
"c	c #A7A7A7",
"d	c #C1C1C1",
"e	c #161616",
".........................",
".........................",
".........................",
".........................",
".........................",
".........................",
".........................",
"..+@@@@#.........$@@@@@%.",
"..+@@@@&*........$@@@@@%.",
"..+@@@@@=-.......$@@@@@%.",
"..+@@@@@@;>......$@@@@@%.",
"..+@@@@@@@,'.....$@@@@@%.",
"..+@@@@@@@@)!....$@@@@@%.",
"..+@@@@@@@@@~....$@@@@@%.",
"..+@@@@{@@@@@]...$@@@@@%.",
"..+@@@@^/@@@@(_..$@@@@@%.",
"..+@@@@#:;@@@@<[.$@@@@@%.",
"..+@@@@#.-=@@@@}|$@@@@@%.",
"..+@@@@#..12@@@@34@@@@@%.",
"..+@@@@#...5@@@@@6@@@@@%.",
"..+@@@@#....7@@@@@@@@@@%.",
"..+@@@@#....%8@@@@@@@@@%.",
"..+@@@@#.....90@@@@@@@@%.",
"..+@@@@#......a<@@@@@@@%.",
"..+@@@@#.......b&@@@@@@%.",
"..+@@@@#........c@@@@@@%.",
"..+@@@@#.........d@@@@@%.",
"..+@@@@#.........e+@@@@%.",
".........................",
"........................."};
