/* XPM */
static xpm_row_t const letterD_xpm[] = {
"25 30 55 1",
" 	c None",
".	c #000000",
"+	c #E0E0E0",
"@	c #FEFEFE",
"#	c #FCFCFC",
"$	c #F4F4F4",
"%	c #EAEAEA",
"&	c #CECECE",
"*	c #A6A6A6",
"=	c #474747",
"-	c #F8F8F8",
";	c #BFBFBF",
">	c #3B3B3B",
",	c #6C6C6C",
"'	c #F3F3F3",
")	c #5F5F5F",
"!	c #A2A2A2",
"~	c #0D0D0D",
"{	c #7A7A7A",
"]	c #B6B6B6",
"^	c #F2F2F2",
"/	c #E8E8E8",
"(	c #222222",
"_	c #D6D6D6",
":	c #AAAAAA",
"<	c #262626",
"[	c #E4E4E4",
"}	c #EFEFEF",
"|	c #878787",
"1	c #727272",
"2	c #ABABAB",
"3	c #DEDEDE",
"4	c #BBBBBB",
"5	c #C6C6C6",
"6	c #BCBCBC",
"7	c #F5F5F5",
"8	c #AEAEAE",
"9	c #8B8B8B",
"0	c #7F7F7F",
"a	c #2A2A2A",
"b	c #E6E6E6",
"c	c #161616",
"d	c #D7D7D7",
"e	c #424242",
"f	c #777777",
"g	c #B4B4B4",
"h	c #F1F1F1",
"i	c #787878",
"j	c #818181",
"k	c #F7F7F7",
"l	c #C3C3C3",
"m	c #F9F9F9",
"n	c #C8C8C8",
"o	c #A1A1A1",
"p	c #3D3D3D",
".........................",
".........................",
".........................",
".........................",
".........................",
".........................",
".........................",
"..+@@@@@@@@#$%&*=........",
"..+@@@@@@@@@@@@@-;>......",
"..+@@@@@@@@@@@@@@@%,.....",
"..+@@@@@@@@@@@@@@@@')....",
"..+@@@@!..~={]^@@@@@/(...",
"..+@@@@!......>_@@@@@:...",
"..+@@@@!.......<[@@@@}...",
"..+@@@@!........|@@@@@1..",
"..+@@@@!.........$@@@@2..",
"..+@@@@!.........3@@@@4..",
"..+@@@@!........._@@@@5..",
"..+@@@@!.........3@@@@6..",
"..+@@@@!........~7@@@@8..",
"..+@@@@!........9@@@@@0..",
"..+@@@@!.......ab@@@@7c..",
"..+@@@@!......>d@@@@@4...",
"..+@@@@!...efgh@@@@@^>...",
"..+@@@@@@@@@@@@@@@@-i....",
"..+@@@@@@@@@@@@@@@}j.....",
"..+@@@@@@@@@@@@@kle......",
"..+@@@@@@@@mhbnop........",
".........................",
"........................."};
