/* XPM */
static xpm_row_t const letter7_xpm[] = {
"25 30 42 1",
" 	c None",
".	c #000000",
"+	c #4F4F4F",
"@	c #FEFEFE",
"#	c #B2B2B2",
"$	c #787878",
"%	c #EAEAEA",
"&	c #B4B4B4",
"*	c #D9D9D9",
"=	c #FDFDFD",
"-	c #5C5C5C",
";	c #515151",
">	c #FCFCFC",
",	c #DEDEDE",
"'	c #B0B0B0",
")	c #A3A3A3",
"!	c #E7E7E7",
"~	c #F9F9F9",
"{	c #3B3B3B",
"]	c #717171",
"^	c #CFCFCF",
"/	c #BFBFBF",
"(	c #8E8E8E",
"_	c #161616",
":	c #F1F1F1",
"<	c #F2F2F2",
"[	c #8D8D8D",
"}	c #C1C1C1",
"|	c #CECECE",
"1	c #757575",
"2	c #E8E8E8",
"3	c #565656",
"4	c #DBDBDB",
"5	c #B5B5B5",
"6	c #A0A0A0",
"7	c #F8F8F8",
"8	c #383838",
"9	c #E1E1E1",
"0	c #CDCDCD",
"a	c #858585",
"b	c #DCDCDC",
"c	c #8B8B8B",
".........................",
".........................",
".........................",
".........................",
".........................",
".........................",
".........................",
".+@@@@@@@@@@@@@#.........",
".+@@@@@@@@@@@@@$.........",
".+@@@@@@@@@@@@%..........",
".+@@@@@@@@@@@@&..........",
".........*@@@=-..........",
"........;>@@@,...........",
"........'@@@@)...........",
"........!@@@~{...........",
".......]@@@@^............",
"......./@@@@(............",
"......_:@@@<_............",
"......[@@@@}.............",
"......|@@@@1.............",
".....{~@@@2..............",
".....)@@@@#..............",
".....,@@@=3..............",
"....-=@@@4...............",
"....5@@@@6...............",
"....%@@@78...............",
"....[9@@0................",
"......abc................",
".........................",
"........................."};
