/* XPM */
static xpm_row_t const letter5_xpm[] = {
"25 30 50 1",
" 	c None",
".	c #000000",
"+	c #323232",
"@	c #FEFEFE",
"#	c #C9C9C9",
"$	c #3D3D3D",
"%	c #FAFAFA",
"&	c #E6E6E6",
"*	c #B7B7B7",
"=	c #454545",
"-	c #F0F0F0",
";	c #777777",
">	c #F3F3F3",
",	c #5A5A5A",
"'	c #CDCDCD",
")	c #0D0D0D",
"!	c #515151",
"~	c #2E2E2E",
"{	c #606060",
"]	c #9F9F9F",
"^	c #E4E4E4",
"/	c #353535",
"(	c #222222",
"_	c #7A7A7A",
":	c #C1C1C1",
"<	c #8A8A8A",
"[	c #1C1C1C",
"}	c #757575",
"|	c #4D4D4D",
"1	c #E7E7E7",
"2	c #7F7F7F",
"3	c #555555",
"4	c #383838",
"5	c #7D7D7D",
"6	c #DADADA",
"7	c #F7F7F7",
"8	c #4F4F4F",
"9	c #C3C3C3",
"0	c #EAEAEA",
"a	c #F9F9F9",
"b	c #E0E0E0",
"c	c #585858",
"d	c #535353",
"e	c #B6B6B6",
"f	c #DFDFDF",
"g	c #F4F4F4",
"h	c #FCFCFC",
"i	c #EFEFEF",
"j	c #D1D1D1",
"k	c #939393",
".........................",
".........................",
".........................",
".........................",
".........................",
".........................",
".........................",
"..+@@@@@@@@@@#...........",
"..+@@@@@@@@@@#...........",
"..+@@@@@@@@@@#...........",
"..+@@@@@@@@@@#...........",
"..+@@@@$.................",
"..+@@@@$.................",
"..+@@@@$.................",
"..+@@@@$.................",
"..+@@@@@%&*=.............",
"..+@@@@@@@@-;............",
"..+@@@@@@@@@>,...........",
"..+@@@@@@@@@@'...........",
"..);!~{]^@@@@%/..........",
"........(&@@@@_..........",
".........:@@@@<..........",
"........[&@@@@}..........",
".|1*23456@@@@7(..........",
".8@@@@@@@@@@@9...........",
".8@@@@@@@@@@0=...........",
".=a@@@@@@@@bc............",
"..defgh%ijk).............",
".........................",
"........................."};
