/* XPM */
static xpm_row_t const letter4_xpm[] = {
"25 30 32 1",
" 	c None",
".	c #000000",
"+	c #C1C1C1",
"@	c #FEFEFE",
"#	c #DEDEDE",
"$	c #9F9F9F",
"%	c #777777",
"&	c #FAFAFA",
"*	c #4D4D4D",
"=	c #EFEFEF",
"-	c #1C1C1C",
";	c #C3C3C3",
">	c #A1A1A1",
",	c #FCFCFC",
"'	c #F5F5F5",
")	c #797979",
"!	c #AFAFAF",
"~	c #E4E4E4",
"{	c #4F4F4F",
"]	c #F0F0F0",
"^	c #CECECE",
"/	c #222222",
"(	c #DFDFDF",
"_	c #E6E6E6",
":	c #323232",
"<	c #C4C4C4",
"[	c #F4F4F4",
"}	c #5F5F5F",
"|	c #A3A3A3",
"1	c #878787",
"2	c #E2E2E2",
"3	c #636363",
".........................",
".........................",
".........................",
".........................",
".........................",
".........................",
".........................",
"..........+@@#...........",
".........$@@@#...........",
"........%&@@@#...........",
".......*=@@@@#...........",
"......-#@@@@@#...........",
"......;@@@@@@#...........",
".....>@@,'@@@#...........",
"....)&@@!~@@@#...........",
"...{]@@^.~@@@#...........",
"../(@@_:.~@@@#...........",
"..<@@[}..~@@@#...........",
".|@@,1...~@@@#...........",
".2@@@@@@@@@@@@@3.........",
".2@@@@@@@@@@@@@3.........",
".2@@@@@@@@@@@@@3.........",
".2@@@@@@@@@@@@@3.........",
".........~@@@#...........",
".........~@@@#...........",
".........~@@@#...........",
".........~@@@#...........",
".........~@@@#...........",
".........................",
"........................."};
