/* XPM */
static xpm_row_t const letterZ_xpm[] = {
"25 30 52 1",
" 	c None",
".	c #000000",
"+	c #5D5D5D",
"@	c #FEFEFE",
"#	c #D2D2D2",
"$	c #F5F5F5",
"%	c #4F4F4F",
"&	c #9E9E9E",
"*	c #D7D7D7",
"=	c #474747",
"-	c #F2F2F2",
";	c #F6F6F6",
">	c #565656",
",	c #CDCDCD",
"'	c #A3A3A3",
")	c #919191",
"!	c #DADADA",
"~	c #424242",
"{	c #F1F1F1",
"]	c #F8F8F8",
"^	c #CBCBCB",
"/	c #A9A9A9",
"(	c #8E8E8E",
"_	c #DEDEDE",
":	c #3D3D3D",
"<	c #F0F0F0",
"[	c #F9F9F9",
"}	c #636363",
"|	c #C9C9C9",
"1	c #AFAFAF",
"2	c #8A8A8A",
"3	c #E1E1E1",
"4	c #0D0D0D",
"5	c #3B3B3B",
"6	c #EFEFEF",
"7	c #FAFAFA",
"8	c #6A6A6A",
"9	c #C6C6C6",
"0	c #B4B4B4",
"a	c #878787",
"b	c #E5E5E5",
"c	c #1C1C1C",
"d	c #383838",
"e	c #EEEEEE",
"f	c #FBFBFB",
"g	c #717171",
"h	c #C4C4C4",
"i	c #FDFDFD",
"j	c #848484",
"k	c #323232",
"l	c #EDEDED",
"m	c #C1C1C1",
".........................",
".........................",
".........................",
".........................",
".........................",
".........................",
".........................",
"+@@@@@@@@@@@@@@@@@@#.....",
"+@@@@@@@@@@@@@@@@@$%.....",
"+@@@@@@@@@@@@@@@@@&......",
"+@@@@@@@@@@@@@@@@*.......",
"..........=-@@@@;>.......",
"..........,@@@@@'........",
".........)@@@@@!.........",
"........~{@@@@]+.........",
"........^@@@@@/..........",
".......(@@@@@_...........",
"......:<@@@@[}...........",
"......|@@@@@1............",
".....2@@@@@34............",
"....56@@@@78.............",
"....9@@@@@0..............",
"...a@@@@@bc..............",
"..de@@@@fg...............",
"..h@@@@@@@@@@@@@@@@i.....",
".ji@@@@@@@@@@@@@@@@i.....",
"kl@@@@@@@@@@@@@@@@@i.....",
"m@@@@@@@@@@@@@@@@@@i.....",
".........................",
"........................."};
