/* XPM */
static xpm_row_t const letterM_xpm[] = {
"25 30 49 1",
" 	c None",
".	c #000000",
"+	c #DCDCDC",
"@	c #FEFEFE",
"#	c #F9F9F9",
"$	c #7C7C7C",
"%	c #C7C7C7",
"&	c #949494",
"*	c #F3F3F3",
"=	c #636363",
"-	c #B5B5B5",
";	c #EBEBEB",
">	c #494949",
",	c #9F9F9F",
"'	c #E1E1E1",
")	c #2E2E2E",
"!	c #888888",
"~	c #FBFBFB",
"{	c #D2D2D2",
"]	c #0D0D0D",
"^	c #717171",
"/	c #F7F7F7",
"(	c #C1C1C1",
"_	c #585858",
":	c #F0F0F0",
"<	c #ADADAD",
"[	c #3D3D3D",
"}	c #E7E7E7",
"|	c #F5F5F5",
"1	c #FDFDFD",
"2	c #AFAFAF",
"3	c #E4E4E4",
"4	c #ACACAC",
"5	c #E6E6E6",
"6	c #A8A8A8",
"7	c #535353",
"8	c #EFEFEF",
"9	c #C3C3C3",
"0	c #D7D7D7",
"a	c #161616",
"b	c #8C8C8C",
"c	c #FCFCFC",
"d	c #E5E5E5",
"e	c #383838",
"f	c #A7A7A7",
"g	c #565656",
"h	c #BEBEBE",
"i	c #F8F8F8",
"j	c #737373",
".........................",
".........................",
".........................",
".........................",
".........................",
".........................",
".........................",
"..+@@@#$...........%@@@@&",
"..+@@@@*=.........-@@@@@&",
"..+@@@@@;>.......,@@@@@@&",
"..+@@@@@@').....!~@@@@@@&",
"..+@@@@@@@{]...^/@@@@@@@&",
"..+@@@@@@@@(.._:@@@@@@@@&",
"..+@@@@@@@@@<[}@@@@@@@@@&",
"..+@@@@|@@@@1}@@@@1/@@@@&",
"..+@@@@23@@@@@@@@@45@@@@&",
"..+@@@@678@@@@@@@9.5@@@@&",
"..+@@@@6.^/@@@@@0a.5@@@@&",
"..+@@@@6..bc@@@de..5@@@@&",
"..+@@@@6...f@@:g...5@@@@&",
"..+@@@@6....hij....5@@@@&",
"..+@@@@6...........5@@@@&",
"..+@@@@6...........5@@@@&",
"..+@@@@6...........5@@@@&",
"..+@@@@6...........5@@@@&",
"..+@@@@6...........5@@@@&",
"..+@@@@6...........5@@@@&",
"..+@@@@6...........5@@@@&",
".........................",
"........................."};
