/* XPM */
static xpm_row_t const letterR_xpm[] = {
"25 30 49 1",
" 	c None",
".	c #000000",
"+	c #DCDCDC",
"@	c #FEFEFE",
"#	c #FDFDFD",
"$	c #F4F4F4",
"%	c #DBDBDB",
"&	c #A1A1A1",
"*	c #1C1C1C",
"=	c #E3E3E3",
"-	c #555555",
";	c #E7E7E7",
">	c #353535",
",	c #B8B8B8",
"'	c #A8A8A8",
")	c #494949",
"!	c #959595",
"~	c #F1F1F1",
"{	c #EEEEEE",
"]	c #9C9C9C",
"^	c #424242",
"/	c #727272",
"(	c #4F4F4F",
"_	c #F9F9F9",
":	c #454545",
"<	c #9A9A9A",
"[	c #CDCDCD",
"}	c #F5F5F5",
"|	c #666666",
"1	c #7E7E7E",
"2	c #474747",
"3	c #D1D1D1",
"4	c #5F5F5F",
"5	c #C1C1C1",
"6	c #ABABAB",
"7	c #F7F7F7",
"8	c #383838",
"9	c #F3F3F3",
"0	c #BEBEBE",
"a	c #B2B2B2",
"b	c #F8F8F8",
"c	c #3D3D3D",
"d	c #BBBBBB",
"e	c #F6F6F6",
"f	c #404040",
"g	c #5D5D5D",
"h	c #FCFCFC",
"i	c #B7B7B7",
"j	c #CECECE",
".........................",
".........................",
".........................",
".........................",
".........................",
".........................",
".........................",
"..+@@@@@@@@#$%&*.........",
"..+@@@@@@@@@@@@=-........",
"..+@@@@@@@@@@@@@;>.......",
"..+@@@@@@@@@@@@@@,.......",
"..+@@@@'..)!~@@@@{.......",
"..+@@@@'....]@@@@@^......",
"..+@@@@'..../@@@@@(......",
"..+@@@@'....&@@@@_.......",
"..+@@@@'..:<$@@@@[.......",
"..+@@@@@@@@@@@@@}|.......",
"..+@@@@@@@@@@@@~1........",
"..+@@@@@@@@@@@~2.........",
"..+@@@@@@@@@@@@3.........",
"..+@@@@'.45@@@@@6........",
"..+@@@@'...5@@@@7).......",
"..+@@@@'...89@@@@0.......",
"..+@@@@'....a@@@@b)......",
"..+@@@@'....c7@@@@d......",
"..+@@@@'.....5@@@@ef.....",
"..+@@@@'.....gh@@@@i.....",
"..+@@@@'......j@@@@}c....",
".........................",
"........................."};
