/* XPM */
static xpm_row_t const letterV_xpm[] = {
"25 30 71 1",
" 	c None",
".	c #000000",
"+	c #E2E2E2",
"@	c #FEFEFE",
"#	c #E4E4E4",
"$	c #6C6C6C",
"%	c #A0A0A0",
"&	c #949494",
"*	c #898989",
"=	c #C9C9C9",
"-	c #F1F1F1",
";	c #222222",
">	c #E9E9E9",
",	c #DCDCDC",
"'	c #4D4D4D",
")	c #FAFAFA",
"!	c #B3B3B3",
"~	c #9F9F9F",
"{	c #787878",
"]	c #B9B9B9",
"^	c #F8F8F8",
"/	c #424242",
"(	c #1C1C1C",
"_	c #EEEEEE",
":	c #D2D2D2",
"<	c #262626",
"[	c #F3F3F3",
"}	c #C2C2C2",
"|	c #ABABAB",
"1	c #FDFDFD",
"2	c #686868",
"3	c #A3A3A3",
"4	c #FCFCFC",
"5	c #5F5F5F",
"6	c #323232",
"7	c #E8E8E8",
"8	c #D1D1D1",
"9	c #B5B5B5",
"0	c #565656",
"a	c #8B8B8B",
"b	c #7A7A7A",
"c	c #F7F7F7",
"d	c #BFBFBF",
"e	c #D9D9D9",
"f	c #DFDFDF",
"g	c #BEBEBE",
"h	c #454545",
"i	c #535353",
"j	c #B6B6B6",
"k	c #EBEBEB",
"l	c #0D0D0D",
"m	c #C6C6C6",
"n	c #F4F4F4",
"o	c #A8A8A8",
"p	c #626262",
"q	c #2E2E2E",
"r	c #CFCFCF",
"s	c #BABABA",
"t	c #727272",
"u	c #4F4F4F",
"v	c #D8D8D8",
"w	c #C8C8C8",
"x	c #818181",
"y	c #6A6A6A",
"z	c #E0E0E0",
"A	c #D7D7D7",
"B	c #8F8F8F",
"C	c #858585",
"D	c #E7E7E7",
"E	c #9B9B9B",
"F	c #9C9C9C",
".........................",
".........................",
".........................",
".........................",
".........................",
".........................",
".........................",
"+@@@@#.........$@@@@@%...",
"&@@@@@*........=@@@@-;...",
".>@@@@,.......')@@@@!....",
".~@@@@@{......]@@@@^/....",
".(_@@@@:.....<[@@@@}.....",
"..|@@@@12....3@@@@45.....",
"..6[@@@@=....7@@@@8......",
"...9@@@@)0..a@@@@@b......",
".../c@@@@d..e@@@@f.......",
"....g@@@@^h$@@@@@&.......",
"....i)@@@@j=@@@@kl.......",
".....m@@@@n)@@@@o........",
".....p4@@@@@@@@nq........",
"......r@@@@@@@@s.........",
"......t@@@@@@@)u.........",
".......v@@@@@@w..........",
".......x@@@@@1y..........",
"........z@@@@A...........",
"........B@@@@C...........",
".........D@@#............",
".........E@@F............",
".........................",
"........................."};
