/* XPM */
static xpm_row_t const letter8_xpm[] = {
"25 30 74 1",
" 	c None",
".	c #000000",
"+	c #555555",
"@	c #BCBCBC",
"#	c #E7E7E7",
"$	c #F8F8F8",
"%	c #FBFBFB",
"&	c #F1F1F1",
"*	c #D5D5D5",
"=	c #8F8F8F",
"-	c #8B8B8B",
";	c #F5F5F5",
">	c #FEFEFE",
",	c #CECECE",
"'	c #222222",
")	c #686868",
"!	c #F9F9F9",
"~	c #C6C6C6",
"{	c #CDCDCD",
"]	c #FAFAFA",
"^	c #939393",
"/	c #494949",
"(	c #C3C3C3",
"_	c #FDFDFD",
":	c #6C6C6C",
"<	c #F2F2F2",
"[	c #353535",
"}	c #B2B2B2",
"|	c #B0B0B0",
"1	c #EBEBEB",
"2	c #C2C2C2",
"3	c #EEEEEE",
"4	c #B6B6B6",
"5	c #C9C9C9",
"6	c #D1D1D1",
"7	c #4B4B4B",
"8	c #797979",
"9	c #5C5C5C",
"0	c #9A9A9A",
"a	c #CCCCCC",
"b	c #D0D0D0",
"c	c #757575",
"d	c #323232",
"e	c #ABABAB",
"f	c #E2E2E2",
"g	c #666666",
"h	c #F0F0F0",
"i	c #565656",
"j	c #4F4F4F",
"k	c #7E7E7E",
"l	c #474747",
"m	c #CACACA",
"n	c #A7A7A7",
"o	c #919191",
"p	c #DBDBDB",
"q	c #0D0D0D",
"r	c #424242",
"s	c #B8B8B8",
"t	c #515151",
"u	c #9F9F9F",
"v	c #999999",
"w	c #D8D8D8",
"x	c #F6F6F6",
"y	c #838383",
"z	c #454545",
"A	c #AFAFAF",
"B	c #A5A5A5",
"C	c #6D6D6D",
"D	c #636363",
"E	c #C1C1C1",
"F	c #E8E8E8",
"G	c #FCFCFC",
"H	c #F4F4F4",
"I	c #2E2E2E",
".........................",
".........................",
".........................",
".........................",
".........................",
".........................",
".........................",
"....+@#$%&*=.............",
"...-;>>>>>>>,'...........",
"..)!>>>>>>>>>~...........",
"..{>>>]^/(>>>_:..........",
"..<>>>{..[!>>>}..........",
"..%>>>|...1>>>2..........",
"..&>>>}...3>>>4..........",
"..5>>>6..7%>>>8..........",
"..9;>>%07a>>>b...........",
"...c3>>>>>>>{d...........",
"...e$>>>>>>>fg...........",
"..}>>>>>>>>>>hi..........",
".j]>>>3kl}>>>>m..........",
".n>>>>o...p>>>!q.........",
".@>>>>r...s>>>>+.........",
".@>>>>7...4>>>>t.........",
".u>>>>v...w>>>;q.........",
".rx>>>hyzA>>>>~..........",
"..B>>>>>>>>>>&t..........",
"...e%>>>>>>>1C...........",
"....DEF$GHpnI............",
".........................",
"........................."};
