/* XPM */
static xpm_row_t const letterO_xpm[] = {
"25 30 81 1",
" 	c None",
".	c #000000",
"+	c #818181",
"@	c #BABABA",
"#	c #E0E0E0",
"$	c #EFEFEF",
"%	c #F8F8F8",
"&	c #FBFBFB",
"*	c #F1F1F1",
"=	c #E6E6E6",
"-	c #C6C6C6",
";	c #969696",
">	c #262626",
",	c #8B8B8B",
"'	c #E3E3E3",
")	c #FEFEFE",
"!	c #F0F0F0",
"~	c #AAAAAA",
"{	c #161616",
"]	c #BEBEBE",
"^	c #DBDBDB",
"/	c #494949",
"(	c #0D0D0D",
"_	c #D1D1D1",
":	c #EBEBEB",
"<	c #474747",
"[	c #BDBDBD",
"}	c #F5F5F5",
"|	c #B9B9B9",
"1	c #787878",
"2	c #404040",
"3	c #323232",
"4	c #666666",
"5	c #A7A7A7",
"6	c #EAEAEA",
"7	c #DFDFDF",
"8	c #222222",
"9	c #FDFDFD",
"0	c #4D4D4D",
"a	c #1C1C1C",
"b	c #C4C4C4",
"c	c #AEAEAE",
"d	c #DCDCDC",
"e	c #ECECEC",
"f	c #3D3D3D",
"g	c #3B3B3B",
"h	c #565656",
"i	c #959595",
"j	c #555555",
"k	c #FAFAFA",
"l	c #9B9B9B",
"m	c #A4A4A4",
"n	c #F6F6F6",
"o	c #D9D9D9",
"p	c #CDCDCD",
"q	c #BBBBBB",
"r	c #D8D8D8",
"s	c #B2B2B2",
"t	c #E9E9E9",
"u	c #A5A5A5",
"v	c #585858",
"w	c #949494",
"x	c #535353",
"y	c #9C9C9C",
"z	c #CFCFCF",
"A	c #7D7D7D",
"B	c #C1C1C1",
"C	c #F4F4F4",
"D	c #B8B8B8",
"E	c #777777",
"F	c #2E2E2E",
"G	c #656565",
"H	c #D3D3D3",
"I	c #454545",
"J	c #C0C0C0",
"K	c #8D8D8D",
"L	c #828282",
"M	c #E1E1E1",
"N	c #F9F9F9",
"O	c #F2F2F2",
"P	c #C5C5C5",
".........................",
".........................",
".........................",
".........................",
".........................",
".........................",
".........................",
"........+@#$%&*=-;>......",
"......,'))))))))))!~{....",
"....{]))))))))))))))^/...",
"...(_)))))))))))))))):<..",
"...[)))))}|123456)))))78.",
"..19))))#0......ab)))))c.",
"..d))))ef........._))))}g",
".h9))))i..........jk))))l",
".m))))n{...........o))))p",
".q))))#............q))))7",
".-))))r............s))))t",
".q))))#............q))))7",
".u))))n{...........o))))p",
".v)))))w..........xk))))y",
"..7)))):g.........z))))ng",
"..A)))))7/......{B)))))c.",
"...B)))))CDEfFG5t)))))78.",
"...(H))))))))))))))))6I..",
"....aJ))))))))))))))rI...",
"......K'))))))))))$5(....",
"........LqM!N&O=Pw8......",
".........................",
"........................."};
