/* XPM */
static xpm_row_t const letterE_xpm[] = {
"25 30 7 1",
" 	c None",
".	c #000000",
"+	c #D2D2D2",
"@	c #FEFEFE",
"#	c #858585",
"$	c #B1B1B1",
"%	c #E2E2E2",
".........................",
".........................",
".........................",
".........................",
".........................",
".........................",
".........................",
"..+@@@@@@@@@@@@@@#.......",
"..+@@@@@@@@@@@@@@#.......",
"..+@@@@@@@@@@@@@@#.......",
"..+@@@@@@@@@@@@@@#.......",
"..+@@@@$.................",
"..+@@@@$.................",
"..+@@@@$.................",
"..+@@@@$.................",
"..+@@@@@@@@@@@@@%........",
"..+@@@@@@@@@@@@@%........",
"..+@@@@@@@@@@@@@%........",
"..+@@@@@@@@@@@@@%........",
"..+@@@@$.................",
"..+@@@@$.................",
"..+@@@@$.................",
"..+@@@@$.................",
"..+@@@@$.................",
"..+@@@@@@@@@@@@@@$.......",
"..+@@@@@@@@@@@@@@$.......",
"..+@@@@@@@@@@@@@@$.......",
"..+@@@@@@@@@@@@@@$.......",
".........................",
"........................."};
