/* XPM */
static xpm_row_t const letterF_xpm[] = {
"25 30 6 1",
" 	c None",
".	c #000000",
"+	c #DCDCDC",
"@	c #FEFEFE",
"#	c #A5A5A5",
"$	c #A8A8A8",
".........................",
".........................",
".........................",
".........................",
".........................",
".........................",
".........................",
"..+@@@@@@@@@@@@@#........",
"..+@@@@@@@@@@@@@#........",
"..+@@@@@@@@@@@@@#........",
"..+@@@@@@@@@@@@@#........",
"..+@@@@$.................",
"..+@@@@$.................",
"..+@@@@$.................",
"..+@@@@$.................",
"..+@@@@$.................",
"..+@@@@@@@@@@@@@#........",
"..+@@@@@@@@@@@@@#........",
"..+@@@@@@@@@@@@@#........",
"..+@@@@@@@@@@@@@#........",
"..+@@@@$.................",
"..+@@@@$.................",
"..+@@@@$.................",
"..+@@@@$.................",
"..+@@@@$.................",
"..+@@@@$.................",
"..+@@@@$.................",
"..+@@@@$.................",
".........................",
"........................."};
