/* XPM */
static xpm_row_t const letterW_xpm[] = {
"25 30 71 1",
" 	c None",
".	c #000000",
"+	c #E7E7E7",
"@	c #FEFEFE",
"#	c #E5E5E5",
"$	c #2E2E2E",
"%	c #F3F3F3",
"&	c #8C8C8C",
"*	c #B8B8B8",
"=	c #FDFDFD",
"-	c #686868",
";	c #A5A5A5",
">	c #7F7F7F",
",	c #AAAAAA",
"'	c #DEDEDE",
")	c #1C1C1C",
"!	c #F1F1F1",
"~	c #D9D9D9",
"{	c #F5F5F5",
"]	c #D0D0D0",
"^	c #161616",
"/	c #EDEDED",
"(	c #7A7A7A",
"_	c #9B9B9B",
":	c #8F8F8F",
"<	c #BDBDBD",
"[	c #FBFBFB",
"}	c #555555",
"|	c #D4D4D4",
"1	c #E0E0E0",
"2	c #ECECEC",
"3	c #0D0D0D",
"4	c #5C5C5C",
"5	c #FCFCFC",
"6	c #BABABA",
"7	c #696969",
"8	c #737373",
"9	c #ADADAD",
"0	c #D3D3D3",
"a	c #F2F2F2",
"b	c #222222",
"c	c #898989",
"d	c #B9B9B9",
"e	c #CACACA",
"f	c #C9C9C9",
"g	c #F8F8F8",
"h	c #3D3D3D",
"i	c #848484",
"j	c #9E9E9E",
"k	c #DBDBDB",
"l	c #2A2A2A",
"m	c #CBCBCB",
"n	c #6E6E6E",
"o	c #F9F9F9",
"p	c #C4C4C4",
"q	c #EEEEEE",
"r	c #B4B4B4",
"s	c #6C6C6C",
"t	c #EFEFEF",
"u	c #F7F7F7",
"v	c #404040",
"w	c #D5D5D5",
"x	c #DADADA",
"y	c #BEBEBE",
"z	c #7D7D7D",
"A	c #919191",
"B	c #FAFAFA",
"C	c #8D8D8D",
"D	c #AFAFAF",
"E	c #E6E6E6",
"F	c #C6C6C6",
".........................",
".........................",
".........................",
".........................",
".........................",
".........................",
".........................",
".........................",
".........................",
".........................",
".+@@#.....$%@@&.....*@@=-",
".;@@@>....,@@@'....)!@@~.",
".${@@]...^/@@@@(..._@@@:.",
"..<@@[}.._@@@@@|...1@@23.",
"..45@@6..#@@@@@=7.8@@@9..",
"...0@@abc@@@d[@@e.f@@gh..",
"...i@@@jk@@alm@@[no@@p...",
"....+@@q@@@r.s=@@t@@@7...",
"....;@@@@@uv..w@@@@@x....",
"....${@@@@y...z@@@@@A....",
".....<@@@B}....'@@@/3....",
".....45@@f.....C@@@D.....",
"......0@=7......E@gv.....",
"......i@w......._@F......",
".........................",
".........................",
".........................",
".........................",
".........................",
"........................."};
