/* XPM */
static xpm_row_t const letterA_xpm[] = {
"24 21 67 1",
" 	c None",
".	c #000000",
"+	c #0D0D0D",
"@	c #EEEEEE",
"#	c #FEFEFE",
"$	c #B6B6B6",
"%	c #8C8C8C",
"&	c #F0F0F0",
"*	c #1C1C1C",
"=	c #D2D2D2",
"-	c #9B9B9B",
";	c #4D4D4D",
">	c #FBFBFB",
",	c #E2E2E2",
"'	c #B1B1B1",
")	c #797979",
"!	c #EAEAEA",
"~	c #BFBFBF",
"{	c #CECECE",
"]	c #828282",
"^	c #E3E3E3",
"/	c #383838",
"(	c #F7F7F7",
"_	c #535353",
":	c #CCCCCC",
"<	c #AAAAAA",
"[	c #C6C6C6",
"}	c #BABABA",
"|	c #404040",
"1	c #F9F9F9",
"2	c #FAFAFA",
"3	c #474747",
"4	c #717171",
"5	c #F3F3F3",
"6	c #262626",
"7	c #A1A1A1",
"8	c #E5E5E5",
"9	c #929292",
"0	c #767676",
"a	c #2E2E2E",
"b	c #F5F5F5",
"c	c #818181",
"d	c #C1C1C1",
"e	c #C2C2C2",
"f	c #323232",
"g	c #F6F6F6",
"h	c #FCFCFC",
"i	c #5A5A5A",
"j	c #A2A2A2",
"k	c #BDBDBD",
"l	c #E0E0E0",
"m	c #6A6A6A",
"n	c #A6A6A6",
"o	c #C0C0C0",
"p	c #CDCDCD",
"q	c #E8E8E8",
"r	c #F4F4F4",
"s	c #B2B2B2",
"t	c #7A7A7A",
"u	c #888888",
"v	c #9A9A9A",
"w	c #D6D6D6",
"x	c #DBDBDB",
"y	c #D8D8D8",
"z	c #A0A0A0",
"A	c #FDFDFD",
"B	c #626262",
".......+@#####$.........",
".......%######&*........",
".......=#######-........",
"......;>#######,........",
"......'#########).......",
"......!####~####{.......",
".....]####^/(###>_......",
".....:####<.[####}......",
"....|1###23.4####56.....",
"....<####=...,####7.....",
"....8####9...7####8.....",
"...0####5*...ab####c....",
"...[####d.....e####=....",
"..fg###############hi...",
"..j#################k...",
"..l#################ba..",
".m###################n..",
".o####!.........p####q..",
"6r####s.........t#####u.",
"v####h_..........^####w.",
"x####y...........z####AB"};
