/* XPM */
static xpm_row_t const letterH_xpm[] = {
"25 30 7 1",
" 	c None",
".	c #000000",
"+	c #D8D8D8",
"@	c #FEFEFE",
"#	c #ABABAB",
"$	c #A8A8A8",
"%	c #DADADA",
".........................",
".........................",
".........................",
".........................",
".........................",
".........................",
".........................",
"..+@@@@#.........$@@@@%..",
"..+@@@@#.........$@@@@%..",
"..+@@@@#.........$@@@@%..",
"..+@@@@#.........$@@@@%..",
"..+@@@@#.........$@@@@%..",
"..+@@@@#.........$@@@@%..",
"..+@@@@#.........$@@@@%..",
"..+@@@@#.........$@@@@%..",
"..+@@@@@@@@@@@@@@@@@@@%..",
"..+@@@@@@@@@@@@@@@@@@@%..",
"..+@@@@@@@@@@@@@@@@@@@%..",
"..+@@@@@@@@@@@@@@@@@@@%..",
"..+@@@@#.........$@@@@%..",
"..+@@@@#.........$@@@@%..",
"..+@@@@#.........$@@@@%..",
"..+@@@@#.........$@@@@%..",
"..+@@@@#.........$@@@@%..",
"..+@@@@#.........$@@@@%..",
"..+@@@@#.........$@@@@%..",
"..+@@@@#.........$@@@@%..",
"..+@@@@#.........$@@@@%..",
".........................",
"........................."};
