/* XPM */
static xpm_row_t const letter9_xpm[] = {
"25 30 65 1",
" 	c None",
".	c #000000",
"+	c #161616",
"@	c #A3A3A3",
"#	c #DEDEDE",
"$	c #F5F5F5",
"%	c #FBFBFB",
"&	c #F0F0F0",
"*	c #CCCCCC",
"=	c #737373",
"-	c #4F4F4F",
";	c #E2E2E2",
">	c #FEFEFE",
",	c #FDFDFD",
"'	c #B3B3B3",
")	c #323232",
"!	c #E8E8E8",
"~	c #ADADAD",
"{	c #BFBFBF",
"]	c #626262",
"^	c #3B3B3B",
"/	c #F9F9F9",
"(	c #EAEAEA",
"_	c #787878",
":	c #4B4B4B",
"<	c #BCBCBC",
"[	c #C4C4C4",
"}	c #929292",
"|	c #7C7C7C",
"1	c #E6E6E6",
"2	c #ECECEC",
"3	c #B0B0B0",
"4	c #F8F8F8",
"5	c #C5C5C5",
"6	c #0D0D0D",
"7	c #B8B8B8",
"8	c #F7F7F7",
"9	c #353535",
"0	c #AAAAAA",
"a	c #777777",
"b	c #FAFAFA",
"c	c #757575",
"d	c #4D4D4D",
"e	c #C2C2C2",
"f	c #C8C8C8",
"g	c #898989",
"h	c #959595",
"i	c #ABABAB",
"j	c #F2F2F2",
"k	c #1C1C1C",
"l	c #838383",
"m	c #DADADA",
"n	c #BABABA",
"o	c #EBEBEB",
"p	c #404040",
"q	c #BEBEBE",
"r	c #AEAEAE",
"s	c #7F7F7F",
"t	c #E3E3E3",
"u	c #6A6A6A",
"v	c #C3C3C3",
"w	c #B1B1B1",
"x	c #878787",
"y	c #EEEEEE",
"z	c #696969",
".........................",
".........................",
".........................",
".........................",
".........................",
".........................",
".........................",
"....+@#$%&*=.............",
"...-;>>>>>>,'............",
"..)!>>>>>>>>>~...........",
"..{>>>>>>>>>>%]..........",
".^/>>>(_:<>>>>[..........",
".}>>>>|...1>>>2..........",
".3>>>4....5>>>,6.........",
".7>>>8....[>>>>9.........",
".0>>>>a..6!>>>b..........",
"._>>>>!cde>>>>(..........",
"..!>>>>>>>>>>>f..........",
"..g,>>>>>>>>>>h..........",
"...i,>>>>>>>>jk..........",
"....lm8>>>>>>n...........",
".......9o>>>$p...........",
".......q>>>>r............",
"......s,>>>t+............",
".....)2>>>bu.............",
".....v>>>>w..............",
"....x,>>>;+..............",
"...^y>>>bz...............",
".........................",
"........................."};
