/* XPM */
static xpm_row_t const letterL_xpm[] = {
"25 30 6 1",
" 	c None",
".	c #000000",
"+	c #DCDCDC",
"@	c #FEFEFE",
"#	c #A8A8A8",
"$	c #F2F2F2",
".........................",
".........................",
".........................",
".........................",
".........................",
".........................",
".........................",
"..+@@@@#.................",
"..+@@@@#.................",
"..+@@@@#.................",
"..+@@@@#.................",
"..+@@@@#.................",
"..+@@@@#.................",
"..+@@@@#.................",
"..+@@@@#.................",
"..+@@@@#.................",
"..+@@@@#.................",
"..+@@@@#.................",
"..+@@@@#.................",
"..+@@@@#.................",
"..+@@@@#.................",
"..+@@@@#.................",
"..+@@@@#.................",
"..+@@@@#.................",
"..+@@@@@@@@@@@@@@$.......",
"..+@@@@@@@@@@@@@@$.......",
"..+@@@@@@@@@@@@@@$.......",
"..+@@@@@@@@@@@@@@$.......",
".........................",
"........................."};
