/* XPM */
static xpm_row_t const letter2_xpm[] = {
"25 30 56 1",
" 	c None",
".	c #000000",
"+	c #424242",
"@	c #B5B5B5",
"#	c #E9E9E9",
"$	c #FAFAFA",
"%	c #F7F7F7",
"&	c #E5E5E5",
"*	c #BCBCBC",
"=	c #555555",
"-	c #838383",
";	c #EFEFEF",
">	c #FEFEFE",
",	c #F6F6F6",
"'	c #8F8F8F",
")	c #949494",
"!	c #FBFBFB",
"~	c #F9F9F9",
"{	c #6D6D6D",
"]	c #4F4F4F",
"^	c #D1D1D1",
"/	c #5D5D5D",
"(	c #E1E1E1",
"_	c #919191",
":	c #6A6A6A",
"<	c #D8D8D8",
"[	c #0D0D0D",
"}	c #B6B6B6",
"|	c #2A2A2A",
"1	c #ECECEC",
"2	c #494949",
"3	c #5A5A5A",
"4	c #A9A9A9",
"5	c #C1C1C1",
"6	c #454545",
"7	c #C0C0C0",
"8	c #F2F2F2",
"9	c #D9D9D9",
"0	c #CCCCCC",
"a	c #858585",
"b	c #B9B9B9",
"c	c #E3E3E3",
"d	c #585858",
"e	c #F8F8F8",
"f	c #888888",
"g	c #D5D5D5",
"h	c #999999",
"i	c #5C5C5C",
"j	c #F4F4F4",
"k	c #A4A4A4",
"l	c #D7D7D7",
"m	c #A8A8A8",
"n	c #6E6E6E",
"o	c #696969",
"p	c #353535",
"q	c #CECECE",
".........................",
".........................",
".........................",
".........................",
".........................",
".........................",
".........................",
"....+@#$%&*=.............",
"...-;>>>>>>,'............",
"..)!>>>>>>>>~{...........",
".]!>>>>>>>>>>^...........",
"./>>(_+:<>>>>%[..........",
"./>}[...|1>>>>2..........",
".34......5>>>>6..........",
".........7>>>8...........",
".........9>>>0...........",
"........+$>>>a...........",
"........b>>>c............",
".......de>>>f............",
".......g>>>g.............",
"......h>>>%i.............",
".....]j>>>k..............",
".....l>>>g...............",
"....m>>>;6...............",
"...n$>>>>>>>>>>o.........",
"..p#>>>>>>>>>>>o.........",
"..q>>>>>>>>>>>>o.........",
".)>>>>>>>>>>>>>o.........",
".........................",
"........................."};
