/* XPM */
static xpm_row_t const letterB_xpm[] = {
"25 30 54 1",
" 	c None",
".	c #000000",
"+	c #DCDCDC",
"@	c #FEFEFE",
"#	c #FBFBFB",
"$	c #F2F2F2",
"%	c #DADADA",
"&	c #A4A4A4",
"*	c #2A2A2A",
"=	c #E9E9E9",
"-	c #666666",
";	c #F0F0F0",
">	c #474747",
",	c #BFBFBF",
"'	c #A8A8A8",
")	c #454545",
"!	c #9B9B9B",
"~	c #F7F7F7",
"{	c #EAEAEA",
"]	c #B5B5B5",
"^	c #B6B6B6",
"/	c #DDDDDD",
"(	c #9D9D9D",
"_	c #F8F8F8",
":	c #959595",
"<	c #BABABA",
"[	c #C8C8C8",
"}	c #262626",
"|	c #F3F3F3",
"1	c #8F8F8F",
"2	c #FCFCFC",
"3	c #969696",
"4	c #4B4B4B",
"5	c #949494",
"6	c #EDEDED",
"7	c #F4F4F4",
"8	c #2E2E2E",
"9	c #717171",
"0	c #B1B1B1",
"a	c #737373",
"b	c #ABABAB",
"c	c #161616",
"d	c #4D4D4D",
"e	c #939393",
"f	c #EBEBEB",
"g	c #888888",
"h	c #F1F1F1",
"i	c #999999",
"j	c #FAFAFA",
"k	c #A5A5A5",
"l	c #F5F5F5",
"m	c #E3E3E3",
"n	c #BCBCBC",
"o	c #5D5D5D",
".........................",
".........................",
".........................",
".........................",
".........................",
".........................",
".........................",
"..+@@@@@@@@#$%&*.........",
"..+@@@@@@@@@@@@=-........",
"..+@@@@@@@@@@@@@;>.......",
"..+@@@@@@@@@@@@@@,.......",
"..+@@@@'..)!~@@@@{.......",
"..+@@@@'....]@@@@;.......",
"..+@@@@'....^@@@@/.......",
"..+@@@@'..)(_@@@@:.......",
"..+@@@@@@@@@@@@@<........",
"..+@@@@@@@@@@@@[}........",
"..+@@@@@@@@@@@@@|1.......",
"..+@@@@@@@@@@@@@@23......",
"..+@@@@'...456@@@@78.....",
"..+@@@@'.....9@@@@@5.....",
"..+@@@@'......#@@@@0.....",
"..+@@@@'.....a@@@@@b.....",
"..+@@@@'..cdef@@@@@g.....",
"..+@@@@@@@@@@@@@@@h}.....",
"..+@@@@@@@@@@@@@@@i......",
"..+@@@@@@@@@@@@@jk.......",
"..+@@@@@@@@@2lmno........",
".........................",
"........................."};
