/* XPM */
static xpm_row_t const score_title_xpm[] = {
"141 20 250 2",
"  	c None",
". 	c #8F8655",
"+ 	c #918856",
"@ 	c #2D2A17",
"# 	c #000000",
"$ 	c #070602",
"% 	c #595333",
"& 	c #7B7449",
"* 	c #211E10",
"= 	c #131107",
"- 	c #504B2D",
"; 	c #898151",
"> 	c #ACA267",
", 	c #BEB272",
"' 	c #C3B776",
") 	c #C2B675",
"! 	c #B9AE70",
"~ 	c #ABA067",
"{ 	c #938A57",
"] 	c #736B44",
"^ 	c #332F1B",
"/ 	c #C5B977",
"( 	c #787147",
"_ 	c #958C59",
": 	c #A89E65",
"< 	c #312D1A",
"[ 	c #1E1C0E",
"} 	c #81794C",
"| 	c #B6AB6E",
"1 	c #C4B876",
"2 	c #C0B474",
"3 	c #BFB373",
"4 	c #C1B574",
"5 	c #726B43",
"6 	c #C4B877",
"7 	c #B1A66A",
"8 	c #292614",
"9 	c #3B3720",
"0 	c #B5AA6D",
"a 	c #7C7449",
"b 	c #C1B575",
"c 	c #B7AC6E",
"d 	c #888051",
"e 	c #766E45",
"f 	c #736B43",
"g 	c #766F45",
"h 	c #7D7549",
"i 	c #A29861",
"j 	c #716A42",
"k 	c #9D935D",
"l 	c #BEB273",
"m 	c #5E5836",
"n 	c #777047",
"o 	c #AEA469",
"p 	c #B8AC6F",
"q 	c #68613C",
"r 	c #17150A",
"s 	c #4B462A",
"t 	c #837B4E",
"u 	c #B4A96C",
"v 	c #968D5A",
"w 	c #ABA167",
"x 	c #8C8353",
"y 	c #242111",
"z 	c #3E3A22",
"A 	c #464127",
"B 	c #4A4529",
"C 	c #474228",
"D 	c #413C24",
"E 	c #36321D",
"F 	c #3F3B23",
"G 	c #3D3821",
"H 	c #39351F",
"I 	c #68613D",
"J 	c #BAAE70",
"K 	c #A09660",
"L 	c #454026",
"M 	c #484429",
"N 	c #433F25",
"O 	c #423E25",
"P 	c #1B180C",
"Q 	c #0E0C05",
"R 	c #35311C",
"S 	c #2F2C18",
"T 	c #80784C",
"U 	c #867E50",
"V 	c #AEA368",
"W 	c #4C472B",
"X 	c #575232",
"Y 	c #B9AD6F",
"Z 	c #736C44",
"` 	c #B8AD6F",
" .	c #67603C",
"..	c #938A58",
"+.	c #B3A86C",
"@.	c #908755",
"#.	c #4F4A2D",
"$.	c #8E8554",
"%.	c #B3A86B",
"&.	c #B0A56A",
"*.	c #615B38",
"=.	c #ACA167",
"-.	c #9F955F",
";.	c #BCB171",
">.	c #9B925D",
",.	c #797247",
"'.	c #BDB172",
").	c #C3B775",
"!.	c #BAAF70",
"~.	c #9C925D",
"{.	c #5F5937",
"].	c #1B190C",
"^.	c #6B643E",
"/.	c #978E5A",
"(.	c #585233",
"_.	c #A79D64",
":.	c #6F6741",
"<.	c #A69B63",
"[.	c #38341E",
"}.	c #BDB272",
"|.	c #595334",
"1.	c #635D39",
"2.	c #5B5534",
"3.	c #292615",
"4.	c #9B915C",
"5.	c #A49A62",
"6.	c #AA9F66",
"7.	c #ABA066",
"8.	c #5C5635",
"9.	c #4E492C",
"0.	c #262313",
"a.	c #9A915C",
"b.	c #BBB071",
"c.	c #655E3A",
"d.	c #B1A76B",
"e.	c #AAA066",
"f.	c #2B2716",
"g.	c #7E764B",
"h.	c #B2A76B",
"i.	c #605A38",
"j.	c #B6AB6D",
"k.	c #948B59",
"l.	c #7A7248",
"m.	c #ADA368",
"n.	c #A69C65",
"o.	c #070603",
"p.	c #9E945E",
"q.	c #998F5B",
"r.	c #2B2816",
"s.	c #B7AB6E",
"t.	c #857D4F",
"u.	c #A39961",
"v.	c #6D6640",
"w.	c #948B58",
"x.	c #837A4D",
"y.	c #BFB473",
"z.	c #978D5A",
"A.	c #2F2C19",
"B.	c #ADA268",
"C.	c #8D8454",
"D.	c #867D4F",
"E.	c #2D2917",
"F.	c #66603B",
"G.	c #BBAF70",
"H.	c #898051",
"I.	c #AFA469",
"J.	c #A69C64",
"K.	c #B3A86D",
"L.	c #4C472C",
"M.	c #BCB071",
"N.	c #777046",
"O.	c #A39962",
"P.	c #7F774B",
"Q.	c #625C39",
"R.	c #8E8555",
"S.	c #6F6841",
"T.	c #B2A76C",
"U.	c #9D935E",
"V.	c #746D44",
"W.	c #A69C63",
"X.	c #645D3A",
"Y.	c #C0B574",
"Z.	c #8A8152",
"`.	c #5A5434",
" +	c #292514",
".+	c #8B8252",
"++	c #9D945E",
"@+	c #7E764A",
"#+	c #524D2F",
"$+	c #797147",
"%+	c #877F50",
"&+	c #A19760",
"*+	c #968D59",
"=+	c #988E5B",
"-+	c #A59B64",
";+	c #80784B",
">+	c #6C653F",
",+	c #585333",
"'+	c #A99F66",
")+	c #A89D64",
"!+	c #797248",
"~+	c #BEB373",
"{+	c #454027",
"]+	c #4D482B",
"^+	c #635D3A",
"/+	c #746D45",
"(+	c #928957",
"_+	c #3B3721",
":+	c #4A452A",
"<+	c #565131",
"[+	c #AFA569",
"}+	c #776F46",
"|+	c #756D44",
"1+	c #554F30",
"2+	c #A49A63",
"3+	c #706941",
"4+	c #9A905C",
"5+	c #9D945F",
"6+	c #6F6842",
"7+	c #8D8453",
"8+	c #6C6540",
"9+	c #69633E",
"0+	c #928958",
"a+	c #7B7348",
"b+	c #69633D",
"c+	c #827A4D",
"d+	c #958C5A",
"e+	c #7D754A",
"f+	c #908756",
"g+	c #6A633E",
"h+	c #665F3B",
"i+	c #2F2B18",
"j+	c #514C2F",
"k+	c #504B2E",
"l+	c #A89E66",
"m+	c #69623D",
"n+	c #565031",
"o+	c #605937",
"p+	c #242112",
"q+	c #887F50",
"r+	c #867E4F",
"s+	c #5D5735",
"t+	c #766E46",
"u+	c #514C2E",
"v+	c #4E492D",
"w+	c #BCB172",
"x+	c #716942",
"y+	c #544E30",
"z+	c #7F774C",
"A+	c #847B4F",
". + + + @ # # # # # # # $ % . + + & * # # # # # # # # # # # # # # # # # # # # # # # # # # # # # # # # # # # # # # # # # # # # # = - ; > , ' ) ! ~ { ] ^ # # # # # # # # # # # # # # # # # # # # # # # # # # # # # # # # # # # # # # # # # # # # # # # # # # # # # # # # # # # # # # # # # ",
") / / / ( # # # # # # # * _ / / / : < # # # # # # # # # # # # # # # # # # # # # # # # # # # # # # # # # # # # # # # # # # # # [ } | / 1 2 3 3 4 1 / / 5 # # # # # # # # # # # # # # # # # # # # # # # # # # # # # # # # # # # # # # # # # # # # # # # # # # # # # # # # # # # # # # # # # ",
") / ) 6 7 8 # # # # # # 9 0 / / / : < # # # # # # # # # # # # # # # # # # # # # # # # # # # # # # # # # # # # # # # # # # # # a b / c d e f f g h i 2 j # # # # # # # # # # # # # # # # # # # # # # # # # # # # # # # # # # # # # # # # # # # # # # # # # # # # # # # # # # # # # # # # # ",
") / k , l m # # # # # # n 6 0 b / : < # # # # # # # # # # # # # # # # # # # # # # # # # # # # # # # # # # # # # # # # # # # ^ o / p q r # # # # # < s @ # # # # # # # # # # # # # # # # # # # # # # # # # # # # # # # # # # # # # # # # # # # # # # # # # # # # # # # # # # # # # # # # # ",
") / t u 1 v = # # # # $ w 1 x ! / : < # # # # # y z A B s C D * # # # # # = E F G # # # # # # # H F G r # # # # # # # # # # I J / K # # # # # # # # # # # # # # # # = E L B B M N @ # # # # # # # < L B s M O 8 # # # # # # P H F * Q R A B s S # # # Q H L B s M O 8 # # # # # # # # # # ",
") / T U / V W # # # # X ' Y Z ` / : < # # # #  ...+.3 1 6 4 | @.#.# # # # ^ $.%.&.*.$ # # # # G =.0 -.D # # # # # # # # # # 5 ;./ >.# # # # # # # # # # # # # # # < ,.: '.).6 ) !.~.{.= # # # ].^.i ;.' / ) ` /.m # # # # # (._.0 :.^.<., 1 / } Q # [.g =.}.' 6 ) ` _ - $ # # # # ].|.1.2.",
") / T 3.3 , Z $ # # # 4./ 5.B ` / : < # # # # > 6 l 7 6.w Y 6 1 7.W # # # $ 8.0 / =.9.# # # 0.a./ b.( r # # # # # # # # # # c.! / w z # # # # # # # # # # # # # # v , / ) d.e.V ;.6 a.f.# # = g.!./ 4 h.6.0 ' 6 u q # # # # i.j./ k.j.2 7 6.h.l.Q S + , / }.V e.+.1 ' m.M # # # # 9 n.c : ",
") / T o.p./ q.r.# # E s.) t.R ` / : < # # # # u.t.W G E [.C . 4 1 _ # # # # Q v./ ' w.8 # = x.y.6 z.y # # # # # # # # # # # A.B./ ) u.1.= # # # # # # # # # # $ C.)./ B.X G [.9 L D.$.E.# # F.| / G.( G E L H.3 / I.E # # # i.j./ 4 0 :.G [.z 8 # g.) ' 4.C 9 [.z Z b./ J.Q # # # F K./ 0 ",
") / T o.L.b | A # # t.b M.s R ` / : < # # # # # # # # # # # # >./ &.s # # # # # x 1 ' g $ m +./ %.r.# # # # # # # # # # # # # N.2 / / / ) O.P.Q.O ].# # # # # G ) / ~ B # # # # # # # # # ].$.1 1 & # # # # = v 1 ) R.Q # # i.j./ }.S.# # # # # 0.J 1 _ y # # # # Q g.b / % # # # F T.1 u ",
") / T o.[.=.6 ( # 0.p.6 U.# R ` / : < # # # # # # # # # # # # c./ '.V.# # # # # 8 W./ ` X.J./ | H # # # # # # # # # # # # # # # N.: Y./ / / / / Y Z.`.$ # # # . / 3 h # # # # # # # # # # s 7 / o # # # # # # C 2 / K @ # # i.j./ I. +# # # # # g./ ` X.# # # # # # D 7./ .+# # # A.d v Z.",
") / T o.r D.).V # c.` / m # R ` / : < # # # # # # 9 V.x _ v v ++/ 4 @+# # # # # # #+I./ 0 6 3 e # # # # # # # # # # # # # # # # # F $+%+&+G./ / / 6 7 2.# # ].=./ 0 9.# # # # # # # # # # % l / H.# # # # # # Q 7 / 6.C # # i.j./ + # # # # # # 5./ M.++_ _ _ *+*+*+=+c / -+# # # # # # # ",
") / T o.# 1.c ' 9.@+1 V = # R ` / : < # # # # < i Y y.) 1 1 1 1 / ) ;+# # # # # # Q l.l / ).. y # # # # # # # # # # # # # # # # # # $ = < A m H.1 / / O.$ # @ o / h.[.# # # # # # # # # # 2.Y./ >+# # # # # # # v / +.,+# # i.j./ l.# # # # # # o / / 1 ' 1 1 1 1 1 1 / / o # # # # # # # ",
") / T o.# ^ O./ '+)+/ !+# # R ` / : < # # # A h./ )., b.!.J J G./ ) ;+# # # # # # Q & ~+/ 2 } = # # # # # # # # # # # # # # # # # # # # # # # # {+!./ / ]+# S o / d.< # # # # # # # # # # 8.4 / ^+# # # # # # # $./ 0 8.# # i.j./ /+# # # # # # 7 / ) G.J J J J J J J J J -+# # # # # # # ",
") / T o.# # } Y.) 1 Y 9.# # R ` / : < # # Q w.' b (+i._+P o.# :+/ ) ;+# # # # # # <+[+/ b./ +.`.# # # # # # # # # # # # # # # # # # # # # # # # # l./ / }+# 8 m./ +.z # # # # # # # # # # 2.2 / |+# # # # # # # p./ 7 1+# # i.j./ /+# # # # # # B./ e.A # # # # # # # # # # # # # # # # # ",
") / T o.# # s !./ / z.3.# # R ` / : < # # @ &+/ : 8 # # # # # >+/ ) ;+# # # # # r.2+6 ! 3+%.6 6.].# # # # # # # # # # # # # # # # # # # # # # # # >+1 / g.# = )+/ c 2.# # # # # # # # # # <+M./ w.# # # # # # [ ` / W.z # # i.j./ /+# # # # # # K / c Q.# # # # # # # # # # # # # # # # # ",
") / T o.# # Q w.` c $+$ # # R ` / : < # # D : / (+# # # # # o.4+/ ) ;+# # # # $ t.1 ' N.$ |+y./ 5+Q # # # # # # # # # # # # # # # # # # # # # # # Z / / 6+# # N.6 ) 7+= # # # # # # # # # D )+/ ` P # # # # # 2.b / U.y # # i.j./ /+# # # # # # 8+/ ' P.Q # # # # # # # # # # # # # # # # ",
") / T o.# # # # # # # # # # R ` / : < # # r.&+/ +.^ # # # [ V.'./ ) ;+# # # $ 9+/ ' 0+0.# 0.*+' ' j = # # # # # # # # # # # Q.a+s < $ # # # # = B }./ 2 ^ # # [ !./ j.b+= # # # # ^ 9 Q # # c+) / d+r.# # $ 9 : / 3 e+# # # i.j./ /+# # # # # # # I./ 3 {.[ # # # # $ A.W [ # # # F K./ 0 ",
") / T o.# # # # # # # # # # R ` / : < # # Q f+).' K }+5 |+x !.s./ ) ;+# # # ,+| / m.#.# # # D '+/ 0 i.$ # # # # # # # # # # g+!.b &+e+g f f g D., / ) C.$ # # # h+b./ M.t.e f V.l.5.>.i+# # j+e./ Y.a.e f ,.i ' / ~.].# # # i.j./ /+# # # # # # # 1.c / ) C.}+f f e @+K 2 k+# # # F K./ 0 ",
") / T o.# # # # # # # # # # R ` / : < # # # 9.l+/ 6 4 3 2 1 7 }+/ ) ;+# # D K ' ~+m+$ # # # # 8.2 1 O.z # # # # # # # # # # n+'+/ / ' Y.3 3 Y.1 / ~+(+D # # # # # n %./ 6 Y.3 2 ' ).(+y # # $ o+6./ 1 Y.3 b / ).4.F # # # # i.j./ /+# # # # # # # ].S.&.6 / b 3 3 Y.' / u F # # # F K./ 0 ",
". + m # # # # # # # # # # # p+q++ & * # # # # [.r+7 b ) 0 . #.^ + . s+# # ]+x + t+$ # # # # # # X.+ $.u+# # # # # # # # # # = 9 1.x )+!.) 1 }.V @.s+0.# # # # # # = v+H.[+2 ' G.u.Z R $ # # # $ [.@+7.3 6 w+5.x+@ # # # # # L r++ y+# # # # # # # # = D z+)+;.' Y.0 k e N Q # # # @ A++ D."};
